<svg width="165" height="120" viewBox="0 0 165 120" fill="none" xmlns="http://www.w3.org/2000/svg">
<rect width="165" height="120" fill="#C7C7C7"/>
<g clip-path="url(#clip0_1_80)">
<path d="M113.83 71.7005L113.872 71.7268L113.858 71.736L113.83 71.7005Z" fill="#D9D9D9"/>
<path d="M141 48.2651V54.3954L113.913 71.7005L113.871 71.7268V65.5983L141 48.2651Z" fill="#ECECEC"/>
<path d="M113.914 71.7005L113.886 71.736L113.871 71.7268L113.914 71.7005Z" fill="#D9D9D9"/>
<path d="M141 56.5303L113.871 73.8617V79.9886L113.83 79.9634L113.858 79.9994L113.871 79.9914L113.873 79.9897L113.887 79.9989L113.914 79.9628L130.749 69.2083V77.4683L141 70.9183V62.6588H141.001V56.5297L141 56.5303ZM132.288 70.3571V68.2256L132.291 68.2239L139.451 63.6495L139.46 63.6444V65.7758L139.451 65.7815L132.288 70.3576V70.3571Z" fill="#D9D9D9"/>
<path d="M140.999 40V46.1286L130.749 52.6786V46.5489L140.999 40Z" fill="#ECECEC"/>
<path d="M113.871 65.5983V71.7268L113.83 71.7005L106.649 67.113V60.9844L113.871 65.5983Z" fill="#ECECEC"/>
<path d="M113.871 73.8617V79.9891L113.83 79.9639L106.649 75.377V69.2484L113.871 73.8617Z" fill="#D9D9D9"/>
<path d="M24.1019 73.7023C24.0155 73.4692 24 73.2808 24 72.7797C24 72.2787 24.0161 72.0948 24.1019 71.8572C24.2957 71.316 24.7851 71.0383 25.4367 71.0383C26.0883 71.0383 26.5778 71.316 26.7716 71.8572C26.8579 72.0954 26.8741 72.2787 26.8741 72.7797C26.8741 73.2808 26.8579 73.4692 26.7716 73.7023C26.5722 74.2629 26.0883 74.5212 25.4367 74.5212C24.7851 74.5212 24.3013 74.2629 24.1019 73.7023ZM26.0125 73.5036C26.0554 73.3845 26.0715 73.2207 26.0715 72.7792C26.0715 72.3376 26.0554 72.1739 26.0125 72.0548C25.9318 71.8217 25.738 71.6825 25.4367 71.6825C25.1355 71.6825 24.9417 71.8217 24.8609 72.0548C24.8181 72.1739 24.8019 72.3376 24.8019 72.7792C24.8019 73.2207 24.8181 73.3845 24.8609 73.5036C24.9417 73.7366 25.1355 73.8758 25.4367 73.8758C25.738 73.8758 25.9318 73.7366 26.0125 73.5036Z" fill="#D9D9D9"/>
<path d="M27.5188 74.4659C27.4809 74.4659 27.4648 74.451 27.4648 74.416V72.114C27.4648 72.079 27.4809 72.0641 27.5188 72.0641H28.1648C28.2027 72.0641 28.2189 72.079 28.2189 72.114V72.3173H28.2245C28.3481 72.1237 28.5797 72.0097 28.9027 72.0097C29.0748 72.0097 29.2475 72.0596 29.3599 72.1535C29.3866 72.1735 29.3922 72.1981 29.3761 72.2228L29.0748 72.729C29.0587 72.7536 29.0369 72.7536 28.9996 72.7387C28.8599 72.6643 28.7357 72.6248 28.6226 72.6294C28.3431 72.6442 28.2189 72.8281 28.2189 73.1505V74.4155C28.2189 74.4504 28.2027 74.4653 28.1648 74.4653H27.5188V74.4659Z" fill="#D9D9D9"/>
<path d="M29.7196 75.0517C29.6978 75.0271 29.6978 75.0019 29.7251 74.9772L30.1072 74.6199C30.1339 74.5953 30.1612 74.5953 30.1879 74.6199C30.3544 74.7539 30.5159 74.8284 30.7258 74.8284C31.0917 74.8284 31.2476 74.6548 31.2476 74.2975V74.0942H31.242C31.1289 74.2677 30.9029 74.3719 30.5749 74.3719C30.1444 74.3719 29.8376 74.1732 29.7028 73.7913C29.6438 73.6126 29.6164 73.4488 29.6164 73.1911C29.6164 72.9334 29.6432 72.7645 29.7028 72.5904C29.8376 72.2085 30.1444 72.0097 30.5749 72.0097C30.9029 72.0097 31.1289 72.114 31.242 72.2875H31.2476V72.114C31.2476 72.079 31.2637 72.0641 31.3016 72.0641H31.9476C31.9855 72.0641 32.0017 72.079 32.0017 72.114V74.2076C32.0017 75.0116 31.5712 75.413 30.7047 75.413C30.3171 75.413 29.9084 75.2641 29.7196 75.0505V75.0517ZM31.1998 73.5284C31.2377 73.4339 31.2482 73.3446 31.2482 73.1911C31.2482 73.0377 31.2377 72.9478 31.1998 72.8538C31.1352 72.6803 31.0221 72.5956 30.8122 72.5956C30.6184 72.5956 30.4892 72.6797 30.4246 72.8538C30.3867 72.9478 30.3817 73.0377 30.3817 73.1911C30.3817 73.3446 30.3873 73.4345 30.4246 73.5284C30.4892 73.7019 30.6184 73.7867 30.8122 73.7867C31.0221 73.7867 31.1352 73.7025 31.1998 73.5284Z" fill="#D9D9D9"/>
<path d="M34.2074 74.4659C34.1695 74.4659 34.1533 74.451 34.1533 74.416V74.2574H34.1477C34.013 74.416 33.798 74.5203 33.4322 74.5203C32.9694 74.5203 32.5657 74.3021 32.5657 73.7861C32.5657 73.2702 33.0017 73.0119 33.6471 73.0119H34.1099C34.1316 73.0119 34.1422 73.0022 34.1422 72.9821V72.8928C34.1422 72.6694 34.0235 72.5652 33.6092 72.5652C33.3452 72.5652 33.152 72.6345 33.0278 72.7193C33.0011 72.7393 32.9738 72.7341 32.9576 72.7095L32.7154 72.3178C32.6992 72.288 32.7048 72.2634 32.7315 72.2485C32.952 72.1048 33.2694 72.0103 33.7005 72.0103C34.5453 72.0103 34.8577 72.2835 34.8577 72.8785V74.4166C34.8577 74.4515 34.8416 74.4664 34.8037 74.4664H34.2061L34.2074 74.4659ZM34.1428 73.6676V73.5038C34.1428 73.4843 34.1322 73.474 34.1105 73.474H33.7446C33.4378 73.474 33.2819 73.5634 33.2819 73.7472C33.2819 73.9155 33.4055 74.0003 33.6583 74.0003C33.9813 74.0003 34.1428 73.8909 34.1428 73.6676Z" fill="#D9D9D9"/>
<path d="M37.1398 74.4659C37.1019 74.4659 37.0858 74.451 37.0858 74.416V73.0365C37.0858 72.7737 36.9566 72.6002 36.682 72.6002C36.4236 72.6002 36.2733 72.7737 36.2733 73.0365V74.416C36.2733 74.451 36.2572 74.4659 36.2193 74.4659H35.5733C35.5354 74.4659 35.5192 74.451 35.5192 74.416V72.114C35.5192 72.079 35.5354 72.0641 35.5733 72.0641H36.2193C36.2572 72.0641 36.2733 72.079 36.2733 72.114V72.2829H36.2789C36.4025 72.1289 36.6069 72.0097 36.9516 72.0097C37.533 72.0097 37.8399 72.3722 37.8399 72.9031V74.4166C37.8399 74.4515 37.8237 74.4664 37.7858 74.4664H37.1398V74.4659Z" fill="#D9D9D9"/>
<path d="M38.5492 71.6828C38.5113 71.6828 38.4952 71.6679 38.4952 71.6329V71.1416C38.4952 71.1067 38.5113 71.0918 38.5492 71.0918H39.1952C39.2331 71.0918 39.2493 71.1067 39.2493 71.1416V71.6329C39.2493 71.6679 39.2331 71.6828 39.1952 71.6828H38.5492ZM38.5492 74.4659C38.5113 74.4659 38.4952 74.451 38.4952 74.416V72.114C38.4952 72.079 38.5113 72.0641 38.5492 72.0641H39.1952C39.2331 72.0641 39.2493 72.079 39.2493 72.114V74.416C39.2493 74.451 39.2331 74.4659 39.1952 74.4659H38.5492Z" fill="#D9D9D9"/>
<path d="M39.8567 74.4659C39.8189 74.4659 39.8027 74.451 39.8027 74.416V73.9694C39.8027 73.9545 39.8083 73.9344 39.8189 73.9195L41.0568 72.6442V72.6345H39.9263C39.8884 72.6345 39.8723 72.6196 39.8723 72.5847V72.1134C39.8723 72.0785 39.8884 72.0636 39.9263 72.0636H41.891C41.9289 72.0636 41.9451 72.0785 41.9451 72.1134V72.5847C41.9451 72.6047 41.9395 72.6196 41.9289 72.6345L40.7021 73.8846V73.8944H41.8916C41.9295 73.8944 41.9457 73.9092 41.9457 73.9442V74.4155C41.9457 74.4504 41.9295 74.4653 41.8916 74.4653H39.8574L39.8567 74.4659Z" fill="#D9D9D9"/>
<path d="M44.0594 74.4659C44.0216 74.4659 44.0054 74.451 44.0054 74.416V74.2574H43.9998C43.865 74.416 43.6501 74.5203 43.2843 74.5203C42.8215 74.5203 42.4177 74.3021 42.4177 73.7861C42.4177 73.2702 42.8538 73.0119 43.4992 73.0119H43.9619C43.9837 73.0119 43.9942 73.0022 43.9942 72.9821V72.8928C43.9942 72.6694 43.8756 72.5652 43.4613 72.5652C43.1973 72.5652 43.0041 72.6345 42.8799 72.7193C42.8532 72.7393 42.8258 72.7341 42.8097 72.7095L42.5674 72.3178C42.5513 72.288 42.5569 72.2634 42.5836 72.2485C42.8041 72.1048 43.1215 72.0103 43.5526 72.0103C44.3974 72.0103 44.7098 72.2835 44.7098 72.8785V74.4166C44.7098 74.4515 44.6936 74.4664 44.6558 74.4664H44.0582L44.0594 74.4659ZM43.9948 73.6676V73.5038C43.9948 73.4843 43.9843 73.474 43.9625 73.474H43.5967C43.2898 73.474 43.1339 73.5634 43.1339 73.7472C43.1339 73.9155 43.2575 74.0003 43.5104 74.0003C43.8334 74.0003 43.9948 73.8909 43.9948 73.6676Z" fill="#D9D9D9"/>
<path d="M46.2546 74.4956C45.6521 74.4956 45.426 74.2477 45.426 73.6968V72.6053C45.426 72.5853 45.4154 72.5755 45.3937 72.5755H45.2322C45.1943 72.5755 45.1781 72.5606 45.1781 72.5257V72.114C45.1781 72.079 45.1943 72.0641 45.2322 72.0641H45.3937C45.4154 72.0641 45.426 72.0544 45.426 72.0344V71.3896C45.426 71.3546 45.4421 71.3397 45.48 71.3397H46.1204C46.1583 71.3397 46.1745 71.3546 46.1745 71.3896V72.0344C46.1745 72.0544 46.185 72.0641 46.2068 72.0641H46.5403C46.5782 72.0641 46.5944 72.079 46.5944 72.114V72.5257C46.5944 72.5606 46.5782 72.5755 46.5403 72.5755H46.2068C46.1857 72.5755 46.1745 72.5853 46.1745 72.6053V73.667C46.1745 73.8457 46.2391 73.9052 46.4111 73.9052H46.5403C46.5782 73.9052 46.5944 73.9201 46.5944 73.9551V74.4464C46.5944 74.4813 46.5782 74.4962 46.5403 74.4962H46.2552L46.2546 74.4956Z" fill="#D9D9D9"/>
<path d="M47.2068 71.6828C47.1689 71.6828 47.1528 71.6679 47.1528 71.6329V71.1416C47.1528 71.1067 47.1689 71.0918 47.2068 71.0918H47.8528C47.8907 71.0918 47.9069 71.1067 47.9069 71.1416V71.6329C47.9069 71.6679 47.8907 71.6828 47.8528 71.6828H47.2068ZM47.2068 74.4659C47.1689 74.4659 47.1528 74.451 47.1528 74.416V72.114C47.1528 72.079 47.1689 72.0641 47.2068 72.0641H47.8528C47.8907 72.0641 47.9069 72.079 47.9069 72.114V74.416C47.9069 74.451 47.8907 74.4659 47.8528 74.4659H47.2068Z" fill="#D9D9D9"/>
<path d="M48.5411 73.8457C48.482 73.6722 48.4547 73.5032 48.4547 73.265C48.4547 73.0268 48.4814 72.8584 48.5411 72.6843C48.692 72.248 49.1113 72.0097 49.6709 72.0097C50.2306 72.0097 50.6505 72.248 50.8014 72.6843C50.8604 72.8578 50.8878 73.0268 50.8878 73.265C50.8878 73.5032 50.8611 73.6722 50.8014 73.8457C50.6505 74.282 50.2306 74.5203 49.6709 74.5203C49.1113 74.5203 48.6914 74.282 48.5411 73.8457ZM50.0753 73.6773C50.1132 73.5634 50.1238 73.4689 50.1238 73.2656C50.1238 73.0623 50.1132 72.9678 50.0753 72.8538C50.0163 72.6803 49.8815 72.5956 49.6716 72.5956C49.4616 72.5956 49.3268 72.6797 49.2678 72.8538C49.2299 72.9678 49.2194 73.0623 49.2194 73.2656C49.2194 73.4689 49.2299 73.5634 49.2678 73.6773C49.3268 73.8508 49.4616 73.9356 49.6716 73.9356C49.8815 73.9356 50.0163 73.8514 50.0753 73.6773Z" fill="#D9D9D9"/>
<path d="M53.0562 74.4659C53.0183 74.4659 53.0022 74.451 53.0022 74.416V73.0365C53.0022 72.7737 52.873 72.6002 52.5984 72.6002C52.34 72.6002 52.1897 72.7737 52.1897 73.0365V74.416C52.1897 74.451 52.1735 74.4659 52.1357 74.4659H51.4897C51.4518 74.4659 51.4356 74.451 51.4356 74.416V72.114C51.4356 72.079 51.4518 72.0641 51.4897 72.0641H52.1357C52.1735 72.0641 52.1897 72.079 52.1897 72.114V72.2829H52.1953C52.3189 72.1289 52.5233 72.0097 52.868 72.0097C53.4494 72.0097 53.7562 72.3722 53.7562 72.9031V74.4166C53.7562 74.4515 53.7401 74.4664 53.7022 74.4664H53.0562V74.4659Z" fill="#D9D9D9"/>
<path d="M55.6924 71.1416C55.6924 71.1067 55.7085 71.0918 55.7464 71.0918H58.0931C58.131 71.0918 58.1472 71.1067 58.1472 71.1416V71.6724C58.1472 71.7074 58.131 71.7223 58.0931 71.7223H56.516C56.4943 71.7223 56.4837 71.732 56.4837 71.752V72.422C56.4837 72.4421 56.4943 72.4518 56.516 72.4518H57.8291C57.867 72.4518 57.8832 72.4667 57.8832 72.5016V73.0273C57.8832 73.0623 57.867 73.0772 57.8291 73.0772H56.516C56.4943 73.0772 56.4837 73.0869 56.4837 73.1069V73.8067C56.4837 73.8268 56.4943 73.8365 56.516 73.8365H58.0931C58.131 73.8365 58.1472 73.8514 58.1472 73.8863V74.4172C58.1472 74.4521 58.131 74.467 58.0931 74.467H55.7464C55.7085 74.467 55.6924 74.4521 55.6924 74.4172V71.1427V71.1416Z" fill="#D9D9D9"/>
<path d="M60.2181 74.4659C60.1858 74.4659 60.1591 74.451 60.1373 74.4212L59.669 73.7661H59.6634L59.2006 74.4212C59.1739 74.451 59.1416 74.4659 59.1143 74.4659H58.4198C58.377 74.4659 58.3658 74.4412 58.3819 74.416L59.259 73.2203L58.4465 72.114C58.4304 72.0893 58.441 72.0641 58.4844 72.0641H59.1839C59.2217 72.0641 59.254 72.079 59.2752 72.1088L59.6677 72.6746H59.6733L60.0715 72.1088C60.0982 72.079 60.1255 72.0641 60.1578 72.0641H60.8523C60.9007 72.0641 60.9113 72.0888 60.8951 72.114L60.0827 73.2203L60.9597 74.416C60.9759 74.4407 60.9653 74.4659 60.9169 74.4659H60.2175H60.2181Z" fill="#D9D9D9"/>
<path d="M61.3473 73.8411C61.2933 73.6974 61.2666 73.5187 61.2666 73.2656C61.2666 73.0125 61.2933 72.8338 61.3473 72.6901C61.525 72.2336 61.9126 72.0103 62.4722 72.0103C62.9244 72.0103 63.2685 72.1987 63.4574 72.4621C63.4735 72.4868 63.4735 72.512 63.4468 72.5314L62.9785 72.8143C62.9462 72.8344 62.9195 72.8292 62.8977 72.8046C62.7847 72.6608 62.6716 72.5961 62.4834 72.5961C62.284 72.5961 62.1387 72.6803 62.0797 72.8544C62.0418 72.9535 62.0312 73.0674 62.0312 73.2661C62.0312 73.4649 62.0418 73.5788 62.0797 73.6779C62.1387 73.8514 62.284 73.9362 62.4834 73.9362C62.6716 73.9362 62.7847 73.8714 62.8977 73.7277C62.9188 73.7031 62.9462 73.6979 62.9785 73.718L63.4468 74.0009C63.4735 74.0203 63.4735 74.0455 63.4574 74.0702C63.2692 74.333 62.9244 74.522 62.4722 74.522C61.9126 74.522 61.525 74.2986 61.3473 73.8422V73.8411Z" fill="#D9D9D9"/>
<path d="M63.9462 73.8359C63.8872 73.6825 63.8549 73.5181 63.8549 73.2656C63.8549 73.013 63.8816 72.8441 63.9413 72.6901C64.1077 72.2537 64.5009 72.0103 65.0606 72.0103C65.6202 72.0103 66.0345 72.2634 66.1855 72.6849C66.2445 72.8487 66.2718 73.0176 66.2718 73.4242C66.2718 73.4591 66.2501 73.474 66.2128 73.474H64.6357C64.614 73.474 64.6034 73.4838 64.6034 73.5038C64.609 73.5536 64.6195 73.5983 64.6357 73.6378C64.7059 73.8514 64.8997 73.9556 65.1736 73.9556C65.432 73.9556 65.6202 73.876 65.7712 73.742C65.8035 73.7174 65.8302 73.7174 65.8463 73.742L66.2016 74.0495C66.2283 74.0742 66.2283 74.0994 66.2072 74.1188C65.9544 74.3622 65.5774 74.5208 65.0985 74.5208C64.4904 74.5208 64.1139 74.2729 63.9468 73.8359H63.9462ZM65.496 73.0125C65.5177 73.0125 65.5283 73.0027 65.5283 72.9827C65.5283 72.9082 65.5177 72.8584 65.5016 72.804C65.4426 72.6402 65.2811 72.5412 65.0655 72.5412C64.85 72.5412 64.6891 72.6402 64.6295 72.804C64.6133 72.8584 64.6028 72.9082 64.6028 72.9827C64.6028 73.0027 64.6133 73.0125 64.6351 73.0125H65.496Z" fill="#D9D9D9"/>
<path d="M67.616 74.4956C67.0346 74.4956 66.8085 74.2677 66.8085 73.7317V71.1416C66.8085 71.1067 66.8246 71.0918 66.8625 71.0918H67.5085C67.5464 71.0918 67.5626 71.1067 67.5626 71.1416V73.6767C67.5626 73.8405 67.6328 73.9052 67.7887 73.9052H67.9017C67.9396 73.9052 67.9558 73.9201 67.9558 73.955V74.4464C67.9558 74.4813 67.9396 74.4962 67.9017 74.4962H67.6166L67.616 74.4956Z" fill="#D9D9D9"/>
<path d="M69.2515 74.4956C68.6701 74.4956 68.444 74.2677 68.444 73.7317V71.1416C68.444 71.1067 68.4601 71.0918 68.498 71.0918H69.144C69.1819 71.0918 69.198 71.1067 69.198 71.1416V73.6767C69.198 73.8405 69.2682 73.9052 69.4241 73.9052H69.5372C69.5751 73.9052 69.5912 73.9201 69.5912 73.955V74.4464C69.5912 74.4813 69.5751 74.4962 69.5372 74.4962H69.2521L69.2515 74.4956Z" fill="#D9D9D9"/>
<path d="M70.0534 73.8359C69.9944 73.6825 69.9621 73.5181 69.9621 73.2656C69.9621 73.013 69.9888 72.8441 70.0484 72.6901C70.2149 72.2537 70.6081 72.0103 71.1677 72.0103C71.7274 72.0103 72.1417 72.2634 72.2926 72.6849C72.3516 72.8487 72.379 73.0176 72.379 73.4242C72.379 73.4591 72.3572 73.474 72.32 73.474H70.7429C70.7211 73.474 70.7106 73.4838 70.7106 73.5038C70.7161 73.5536 70.7267 73.5983 70.7429 73.6378C70.813 73.8514 71.0068 73.9556 71.2808 73.9556C71.5392 73.9556 71.7274 73.876 71.8783 73.742C71.9106 73.7174 71.9373 73.7174 71.9535 73.742L72.3088 74.0495C72.3355 74.0742 72.3355 74.0994 72.3144 74.1188C72.0616 74.3622 71.6845 74.5208 71.2056 74.5208C70.5975 74.5208 70.2211 74.2729 70.054 73.8359H70.0534ZM71.6031 73.0125C71.6249 73.0125 71.6354 73.0027 71.6354 72.9827C71.6354 72.9082 71.6249 72.8584 71.6087 72.804C71.5497 72.6402 71.3882 72.5412 71.1727 72.5412C70.9571 72.5412 70.7963 72.6402 70.7366 72.804C70.7205 72.8584 70.7099 72.9082 70.7099 72.9827C70.7099 73.0027 70.7205 73.0125 70.7422 73.0125H71.6031Z" fill="#D9D9D9"/>
<path d="M74.5468 74.4659C74.5089 74.4659 74.4927 74.451 74.4927 74.416V73.0365C74.4927 72.7737 74.3635 72.6002 74.089 72.6002C73.8306 72.6002 73.6803 72.7737 73.6803 73.0365V74.416C73.6803 74.451 73.6641 74.4659 73.6262 74.4659H72.9802C72.9424 74.4659 72.9262 74.451 72.9262 74.416V72.114C72.9262 72.079 72.9424 72.0641 72.9802 72.0641H73.6262C73.6641 72.0641 73.6803 72.079 73.6803 72.114V72.2829H73.6859C73.8095 72.1289 74.0138 72.0097 74.3586 72.0097C74.94 72.0097 75.2468 72.3722 75.2468 72.9031V74.4166C75.2468 74.4515 75.2307 74.4664 75.1928 74.4664H74.5468V74.4659Z" fill="#D9D9D9"/>
<path d="M75.8537 73.8411C75.7996 73.6974 75.7729 73.5187 75.7729 73.2656C75.7729 73.0125 75.7996 72.8338 75.8537 72.6901C76.0313 72.2336 76.4189 72.0103 76.9786 72.0103C77.4308 72.0103 77.7749 72.1987 77.9631 72.4621C77.9793 72.4868 77.9793 72.512 77.9526 72.5314L77.4842 72.8143C77.4519 72.8344 77.4252 72.8292 77.4035 72.8046C77.2904 72.6608 77.1774 72.5961 76.9891 72.5961C76.7898 72.5961 76.6444 72.6803 76.5854 72.8544C76.5475 72.9535 76.5369 73.0674 76.5369 73.2661C76.5369 73.4649 76.5475 73.5788 76.5854 73.6779C76.6444 73.8514 76.7898 73.9362 76.9891 73.9362C77.1774 73.9362 77.2904 73.8714 77.4035 73.7277C77.4252 73.7031 77.4519 73.6979 77.4842 73.718L77.9526 74.0009C77.9793 74.0203 77.9793 74.0455 77.9631 74.0702C77.7749 74.333 77.4302 74.522 76.9786 74.522C76.4189 74.522 76.0313 74.2986 75.8537 73.8422V73.8411Z" fill="#D9D9D9"/>
<path d="M78.4526 73.8359C78.3936 73.6825 78.3613 73.5181 78.3613 73.2656C78.3613 73.013 78.388 72.8441 78.4476 72.6901C78.6147 72.2537 79.0073 72.0103 79.5669 72.0103C80.1266 72.0103 80.5409 72.2634 80.6918 72.6849C80.7508 72.8487 80.7782 73.0176 80.7782 73.4242C80.7782 73.4591 80.7564 73.474 80.7192 73.474H79.142C79.1203 73.474 79.1097 73.4838 79.1097 73.5038C79.1153 73.5536 79.1259 73.5983 79.142 73.6378C79.2122 73.8514 79.406 73.9556 79.68 73.9556C79.9384 73.9556 80.1266 73.876 80.2775 73.742C80.3098 73.7174 80.3365 73.7174 80.3527 73.742L80.708 74.0495C80.7347 74.0742 80.7347 74.0994 80.7136 74.1188C80.4607 74.3622 80.0837 74.5208 79.6048 74.5208C78.9967 74.5208 78.6197 74.2729 78.4532 73.8359H78.4526ZM80.0023 73.0125C80.0241 73.0125 80.0346 73.0027 80.0346 72.9827C80.0346 72.9082 80.0241 72.8584 80.0079 72.804C79.9489 72.6402 79.7874 72.5412 79.5719 72.5412C79.3563 72.5412 79.1948 72.6402 79.1358 72.804C79.1197 72.8584 79.1091 72.9082 79.1091 72.9827C79.1091 73.0027 79.1197 73.0125 79.1414 73.0125H80.0023Z" fill="#D9D9D9"/>
<path d="M82.4286 74.0593C82.4019 74.0346 82.3963 74.0049 82.423 73.9751L82.8317 73.5433C82.8534 73.5187 82.8801 73.5135 82.9124 73.5382C83.1547 73.7168 83.4833 73.8858 83.8703 73.8858C84.2572 73.8858 84.4678 73.722 84.4678 73.4838C84.4678 73.285 84.3386 73.1613 83.9026 73.1064L83.7088 73.0818C82.9497 72.9827 82.5516 72.67 82.5516 72.0693C82.5516 71.4686 83.0572 71.0374 83.8485 71.0374C84.3436 71.0374 84.7852 71.1714 85.0921 71.3896C85.1244 71.4096 85.13 71.4342 85.1026 71.464L84.7747 71.9153C84.7529 71.9399 84.7262 71.945 84.6995 71.9301C84.4194 71.7566 84.1504 71.6719 83.8491 71.6719C83.5261 71.6719 83.3591 71.8259 83.3591 72.0389C83.3591 72.2325 83.4988 72.3568 83.9299 72.4112L84.1237 72.4358C84.8827 72.5349 85.2753 72.8378 85.2753 73.458C85.2753 74.0782 84.7858 74.5197 83.8386 74.5197C83.2628 74.5197 82.7137 74.3112 82.4286 74.0581V74.0593Z" fill="#D9D9D9"/>
<path d="M85.7542 73.8457C85.6952 73.6722 85.6679 73.5032 85.6679 73.265C85.6679 73.0268 85.6946 72.8584 85.7542 72.6843C85.9051 72.248 86.3244 72.0097 86.8841 72.0097C87.4437 72.0097 87.8636 72.248 88.0146 72.6843C88.0736 72.8578 88.1009 73.0268 88.1009 73.265C88.1009 73.5032 88.0742 73.6722 88.0146 73.8457C87.8636 74.282 87.4437 74.5203 86.8841 74.5203C86.3244 74.5203 85.9045 74.282 85.7542 73.8457ZM87.2878 73.6773C87.3257 73.5634 87.3363 73.4689 87.3363 73.2656C87.3363 73.0623 87.3257 72.9678 87.2878 72.8538C87.2288 72.6803 87.094 72.5956 86.8841 72.5956C86.6741 72.5956 86.5393 72.6797 86.4803 72.8538C86.4424 72.9678 86.4319 73.0623 86.4319 73.2656C86.4319 73.4689 86.4424 73.5634 86.4803 73.6773C86.5393 73.8508 86.6741 73.9356 86.8841 73.9356C87.094 73.9356 87.2288 73.8514 87.2878 73.6773Z" fill="#D9D9D9"/>
<path d="M88.6003 73.8411C88.5463 73.6974 88.5196 73.5187 88.5196 73.2656C88.5196 73.0125 88.5463 72.8338 88.6003 72.6901C88.778 72.2336 89.1656 72.0103 89.7252 72.0103C90.1774 72.0103 90.5215 72.1987 90.7104 72.4621C90.7265 72.4868 90.7265 72.512 90.6998 72.5314L90.2315 72.8143C90.1992 72.8344 90.1725 72.8292 90.1507 72.8046C90.0377 72.6608 89.9246 72.5961 89.7364 72.5961C89.537 72.5961 89.3917 72.6803 89.3327 72.8544C89.2948 72.9535 89.2842 73.0674 89.2842 73.2661C89.2842 73.4649 89.2948 73.5788 89.3327 73.6779C89.3917 73.8514 89.537 73.9362 89.7364 73.9362C89.9246 73.9362 90.0377 73.8714 90.1507 73.7277C90.1718 73.7031 90.1992 73.6979 90.2315 73.718L90.6998 74.0009C90.7265 74.0203 90.7265 74.0455 90.7104 74.0702C90.5222 74.333 90.1774 74.522 89.7252 74.522C89.1656 74.522 88.778 74.2986 88.6003 73.8422V73.8411Z" fill="#D9D9D9"/>
<path d="M91.2911 71.6828C91.2532 71.6828 91.2371 71.6679 91.2371 71.6329V71.1416C91.2371 71.1067 91.2532 71.0918 91.2911 71.0918H91.9371C91.975 71.0918 91.9912 71.1067 91.9912 71.1416V71.6329C91.9912 71.6679 91.975 71.6828 91.9371 71.6828H91.2911ZM91.2911 74.4659C91.2532 74.4659 91.2371 74.451 91.2371 74.416V72.114C91.2371 72.079 91.2532 72.0641 91.2911 72.0641H91.9371C91.975 72.0641 91.9912 72.079 91.9912 72.114V74.416C91.9912 74.451 91.975 74.4659 91.9371 74.4659H91.2911Z" fill="#D9D9D9"/>
<path d="M92.6304 73.8359C92.5713 73.6825 92.539 73.5181 92.539 73.2656C92.539 73.013 92.5658 72.8441 92.6254 72.6901C92.7919 72.2537 93.185 72.0103 93.7447 72.0103C94.3044 72.0103 94.7187 72.2634 94.8696 72.6849C94.9286 72.8487 94.9559 73.0176 94.9559 73.4242C94.9559 73.4591 94.9342 73.474 94.8969 73.474H93.3198C93.2981 73.474 93.2875 73.4838 93.2875 73.5038C93.2931 73.5536 93.3037 73.5983 93.3198 73.6378C93.39 73.8514 93.5838 73.9556 93.8577 73.9556C94.1161 73.9556 94.3044 73.876 94.4553 73.742C94.4876 73.7174 94.5143 73.7174 94.5305 73.742L94.8857 74.0495C94.9125 74.0742 94.9125 74.0994 94.8913 74.1188C94.6385 74.3622 94.2615 74.5208 93.7826 74.5208C93.1745 74.5208 92.7981 74.2729 92.631 73.8359H92.6304ZM94.1807 73.0125C94.2025 73.0125 94.213 73.0027 94.213 72.9827C94.213 72.9082 94.2025 72.8584 94.1863 72.804C94.1273 72.6402 93.9658 72.5412 93.7503 72.5412C93.5348 72.5412 93.3739 72.6402 93.3142 72.804C93.2981 72.8584 93.2875 72.9082 93.2875 72.9827C93.2875 73.0027 93.2981 73.0125 93.3198 73.0125H94.1807Z" fill="#D9D9D9"/>
<path d="M96.3864 74.4956C95.7839 74.4956 95.5578 74.2477 95.5578 73.6968V72.6053C95.5578 72.5853 95.5473 72.5755 95.5255 72.5755H95.364C95.3261 72.5755 95.31 72.5606 95.31 72.5257V72.114C95.31 72.079 95.3261 72.0641 95.364 72.0641H95.5255C95.5473 72.0641 95.5578 72.0544 95.5578 72.0344V71.3896C95.5578 71.3546 95.574 71.3397 95.6119 71.3397H96.2523C96.2902 71.3397 96.3063 71.3546 96.3063 71.3896V72.0344C96.3063 72.0544 96.3169 72.0641 96.3386 72.0641H96.6722C96.7101 72.0641 96.7262 72.079 96.7262 72.114V72.5257C96.7262 72.5606 96.7101 72.5755 96.6722 72.5755H96.3386C96.3169 72.5755 96.3063 72.5853 96.3063 72.6053V73.667C96.3063 73.8457 96.3709 73.9052 96.543 73.9052H96.6722C96.7101 73.9052 96.7262 73.9201 96.7262 73.9551V74.4464C96.7262 74.4813 96.7101 74.4962 96.6722 74.4962H96.3871L96.3864 74.4956Z" fill="#D9D9D9"/>
<path d="M97.4461 75.3592C97.4082 75.3592 97.3921 75.3443 97.3921 75.3094V74.8232C97.3921 74.7883 97.4082 74.7734 97.4461 74.7734H97.5592C97.7474 74.7734 97.8443 74.7041 97.9145 74.5254L97.9847 74.3467L97.0157 72.114C97.0051 72.079 97.0213 72.0641 97.0585 72.0641H97.7474C97.7797 72.0641 97.8014 72.079 97.812 72.114L98.3344 73.5032H98.3449L98.8294 72.114C98.84 72.079 98.8617 72.0641 98.894 72.0641H99.5611C99.604 72.0641 99.6202 72.079 99.604 72.114L98.5493 74.6692C98.3288 75.2052 98.0971 75.3586 97.6287 75.3586H97.4455L97.4461 75.3592Z" fill="#D9D9D9"/>
<path d="M26.3728 48.9317H25.0025V50.0369H26.3728V48.9317Z" fill="#D9D9D9"/>
<path d="M28.2754 48.9317H26.9051V50.0369H28.2754V48.9317Z" fill="#D9D9D9"/>
<path d="M34.5745 55.9055H33.2042V57.0107H34.5745V55.9055Z" fill="#D9D9D9"/>
<path d="M32.6713 55.9055H31.301V57.0107H32.6713V55.9055Z" fill="#D9D9D9"/>
<path d="M36.1255 54.081H35.1739C34.8056 54.081 34.5329 54.0564 34.3559 54.0066C34.1782 53.9568 34.0198 53.8617 33.8801 53.7214C33.9117 53.5633 33.9279 53.4116 33.9279 53.265V50.6949H32.5955V53.072C32.5955 53.3761 32.5055 53.62 32.3247 53.8044C32.1439 53.9888 31.9265 54.0805 31.6731 54.0805H29.2376C28.9966 54.0805 28.814 54.0175 28.6903 53.8921C28.5667 53.7666 28.5046 53.5513 28.5046 53.2472L28.5139 50.8701C27.689 50.7533 27.058 50.6949 26.6207 50.6949C26.107 50.6949 25.6548 50.7911 25.2647 50.9847C24.8746 51.1777 24.5715 51.4451 24.356 51.7875C24.1404 52.1294 24.0323 52.5114 24.0323 52.9323C24.0323 53.3532 24.1336 53.7569 24.3367 54.0902C24.5398 54.4235 24.8187 54.6812 25.174 54.8621C25.5293 55.0437 25.9256 55.1341 26.3635 55.1341H26.5536L27.0673 54.0816H26.5722C26.1977 54.0816 25.9107 53.9808 25.7113 53.7792C25.5113 53.5777 25.4119 53.3011 25.4119 52.95C25.4119 52.1489 25.7989 51.748 26.5728 51.748C26.7505 51.748 26.9505 51.7686 27.1723 51.8093V53.4408C27.1723 53.9613 27.3151 54.3737 27.6002 54.6777C27.886 54.9818 28.2978 55.1341 28.8376 55.1341H32.0725C32.3769 55.1341 32.6545 55.0757 32.9049 54.9589C33.1552 54.8421 33.3633 54.6783 33.5279 54.4676C33.7434 54.7132 33.972 54.8845 34.213 54.9807C34.454 55.0769 34.7745 55.1284 35.1739 55.1341H37.448V50.7831H36.1255V54.0816V54.081Z" fill="#D9D9D9"/>
<path d="M37.4672 48.9317H36.0969V50.0369H37.4672V48.9317Z" fill="#D9D9D9"/>
<path d="M39.6791 50.9841C39.289 51.1771 38.9859 51.4445 38.7704 51.787C38.5548 52.1288 38.4467 52.5108 38.4467 52.9317C38.4467 53.3526 38.5467 53.7563 38.7461 54.0896C38.9461 54.4229 39.2219 54.6806 39.5741 54.8616C39.9263 55.0431 40.3207 55.1336 40.7587 55.1336H40.8916L41.4053 54.081H40.9866C40.6121 54.081 40.3251 53.9802 40.1257 53.7787C39.9257 53.5771 39.8263 53.3005 39.8263 52.9495C39.8263 52.1483 40.2133 51.7475 40.9872 51.7475C41.1711 51.7475 41.3742 51.7681 41.596 51.8087V54.8352C41.596 55.1215 41.5357 55.3483 41.4152 55.515C41.2947 55.6816 41.1183 55.807 40.8872 55.8923C40.6555 55.9771 40.3431 56.0429 39.9499 56.0893L40.4829 57.186C41.0028 57.1098 41.4394 56.9913 41.791 56.8303C42.1426 56.6694 42.4202 56.4255 42.6234 56.0979C42.8265 55.7704 42.9277 55.3346 42.9277 54.7905V50.8696C42.1028 50.7528 41.4717 50.6943 41.0344 50.6943C40.5208 50.6943 40.0686 50.7905 39.6785 50.9841H39.6791Z" fill="#D9D9D9"/>
<path d="M54.6321 48.9317H53.2618V50.0369H54.6321V48.9317Z" fill="#D9D9D9"/>
<path d="M56.5353 48.9317H55.165V50.0369H56.5353V48.9317Z" fill="#D9D9D9"/>
<path d="M57.7819 54.081H56.8303C56.462 54.081 56.1893 54.0564 56.0123 54.0066C55.8346 53.9568 55.6762 53.8617 55.5365 53.7214C55.5681 53.5634 55.5843 53.4116 55.5843 53.265V50.6949H54.2519V53.072C54.2519 53.3761 54.1619 53.62 53.9811 53.8044C53.8003 53.9888 53.5829 54.0805 53.3295 54.0805H52.4729C52.4686 54.0805 52.4655 54.0822 52.4611 54.0822C52.4549 54.0822 52.4506 54.0805 52.4444 54.0805C51.9176 54.0805 51.5021 54.057 51.1977 54.01C51.5021 53.7764 51.7431 53.5112 51.9207 53.2163C52.0984 52.9208 52.1872 52.6299 52.1872 52.3436C52.1872 52.0338 52.0686 51.7383 51.8307 51.4577C51.5928 51.1771 51.2741 50.9503 50.8747 50.778C50.4753 50.6056 50.0467 50.5191 49.5902 50.5191C49.2094 50.5191 48.8355 50.5672 48.4671 50.664C48.0994 50.7602 47.6708 50.9051 47.1826 51.0981L46.8876 52.2382C47.4012 53.0222 47.8392 53.6069 48.2007 53.9928C47.8261 54.0513 47.2839 54.0805 46.5739 54.0805C46.5726 54.0805 46.572 54.0816 46.5708 54.0816C46.5683 54.0816 46.567 54.0805 46.5646 54.0805H46.3745C46.1335 54.0805 45.9509 54.0175 45.8273 53.8921C45.7036 53.7666 45.6415 53.5513 45.6415 53.2472V48.414H44.3092V53.4408C44.3092 53.9556 44.452 54.3662 44.7371 54.6732C45.0229 54.9801 45.4347 55.1336 45.9745 55.1336H46.5646C46.5646 55.1336 46.5683 55.1324 46.5708 55.1324C46.572 55.1324 46.5726 55.1336 46.5739 55.1336C47.7665 55.1336 48.8255 55.0253 49.7517 54.8089C50.5318 55.0253 51.4294 55.1336 52.4444 55.1336C52.4506 55.1336 52.4556 55.1319 52.4611 55.1319C52.4655 55.1319 52.468 55.1336 52.4729 55.1336H53.7289C54.0333 55.1336 54.3109 55.0752 54.5613 54.9583C54.8116 54.8415 55.0197 54.6777 55.1843 54.467C55.3998 54.7127 55.6284 54.8839 55.8694 54.9801C56.1104 55.0763 56.4309 55.1278 56.8303 55.1336H59.1044V48.414H57.7819V54.081ZM50.4884 53.3091C50.2443 53.5433 49.9542 53.7363 49.6175 53.888C49.3386 53.6544 49.0591 53.3664 48.7802 53.0239C48.5013 52.682 48.2758 52.3556 48.1044 52.0458C48.6566 51.8179 49.1256 51.7039 49.5125 51.7039C49.8995 51.7039 50.2039 51.7812 50.4641 51.9364C50.7244 52.0916 50.8542 52.3006 50.8542 52.5635C50.8542 52.8263 50.7319 53.0755 50.4877 53.3091H50.4884Z" fill="#D9D9D9"/>
<path d="M62.0542 48.414H60.7218V55.1336H62.0542V48.414Z" fill="#D9D9D9"/>
<path d="M67.5824 48.9317H66.2122V50.0369H67.5824V48.9317Z" fill="#D9D9D9"/>
<path d="M69.4856 48.9317H68.1154V50.0369H69.4856V48.9317Z" fill="#D9D9D9"/>
<path d="M75.6326 55.9055H74.2623V57.0107H75.6326V55.9055Z" fill="#D9D9D9"/>
<path d="M73.7293 55.9055H72.3591V57.0107H73.7293V55.9055Z" fill="#D9D9D9"/>
<path d="M91.047 55.9055H89.6768V57.0107H91.047V55.9055Z" fill="#D9D9D9"/>
<path d="M95.3386 54.0811H94.387C94.1776 54.0811 93.9664 54.0227 93.754 53.9059C93.5416 53.7891 93.3937 53.6282 93.3117 53.4231L92.7981 52.2125C92.6011 51.7447 92.2794 51.3748 91.8322 51.1027C91.3849 50.8307 90.8601 50.695 90.2575 50.695C89.6234 50.695 89.0302 50.8296 88.478 51.0987L88.9631 52.0986C89.2929 51.9526 89.6575 51.8793 90.0575 51.8793C90.419 51.8793 90.7296 51.9566 90.9899 52.1118C91.2501 52.267 91.4433 52.4874 91.57 52.7743L92.008 53.7478C91.6272 53.8824 91.2452 53.9717 90.8613 54.0153C90.4774 54.0594 90.0445 54.0811 89.5625 54.0811H87.8785C87.504 54.0811 87.2189 53.9964 87.022 53.8269C87.1363 53.5634 87.1934 53.2657 87.1934 52.9318C87.1934 52.5109 87.0853 52.1289 86.8698 51.7871C86.6543 51.4452 86.3511 51.1772 85.961 50.9842C85.571 50.7912 85.1188 50.6944 84.6051 50.6944C84.1672 50.6944 83.5361 50.7528 82.7118 50.8697V54.0806H82.141C82.1366 54.0806 82.1335 54.0823 82.1292 54.0823C82.123 54.0823 82.1186 54.0806 82.1124 54.0806C81.5857 54.0806 81.1701 54.0571 80.8657 54.0101C81.1701 53.7765 81.4111 53.5113 81.5888 53.2164C81.7664 52.9209 81.8552 52.63 81.8552 52.3437C81.8552 52.0339 81.7366 51.7384 81.4987 51.4578C81.2608 51.1772 80.9421 50.9504 80.5427 50.778C80.1433 50.6057 79.7148 50.5192 79.2582 50.5192C78.8774 50.5192 78.5035 50.5673 78.1352 50.6641C77.7674 50.7603 77.3389 50.9052 76.8506 51.0982L76.5556 52.2383C77.0693 53.0223 77.5072 53.607 77.8687 53.9929C77.4941 54.0513 76.9519 54.0806 76.2419 54.0806C76.2407 54.0806 76.24 54.0817 76.2388 54.0817C76.2363 54.0817 76.2351 54.0806 76.2326 54.0806C75.8642 54.0806 75.5916 54.0559 75.4145 54.0061C75.2369 53.9563 75.0785 53.8612 74.9387 53.7209C74.9704 53.5629 74.9866 53.4111 74.9866 53.2645V50.6944H73.6542V53.0715C73.6542 53.3756 73.5641 53.6196 73.3834 53.804C73.2026 53.9884 72.9852 54.08 72.7318 54.08H70.4484C70.2074 54.08 70.0248 54.017 69.9012 53.8916C69.7776 53.7662 69.7155 53.5508 69.7155 53.2468L69.7248 50.8697C68.8999 50.7528 68.2688 50.6944 67.8315 50.6944C67.3178 50.6944 66.8656 50.7906 66.4755 50.9842C66.0855 51.1772 65.7823 51.4446 65.5668 51.7871C65.3513 52.1289 65.2432 52.5109 65.2432 52.9318C65.2432 53.3527 65.3444 53.7564 65.5475 54.0897C65.7507 54.423 66.0296 54.6807 66.3849 54.8617C66.7402 55.0432 67.1364 55.1337 67.5744 55.1337H67.7644L68.2781 54.0811H67.7831C67.4085 54.0811 67.1215 53.9803 66.9222 53.7788C66.7221 53.5772 66.6228 53.3006 66.6228 52.9496C66.6228 52.1484 67.0097 51.7476 67.7837 51.7476C67.9613 51.7476 68.1613 51.7682 68.3831 51.8088V53.4403C68.3831 53.9609 68.526 54.3732 68.8111 54.6773C69.0968 54.9813 69.5086 55.1337 70.0484 55.1337H73.1312C73.4355 55.1337 73.7132 55.0753 73.9635 54.9584C74.2138 54.8416 74.4219 54.6778 74.5865 54.4671C74.8021 54.7128 75.0307 54.884 75.2717 54.9802C75.5127 55.0764 75.8332 55.1279 76.2326 55.1337C76.2351 55.1337 76.2363 55.1325 76.2388 55.1325C76.24 55.1325 76.2407 55.1337 76.2419 55.1337C77.4345 55.1337 78.4936 55.0254 79.4197 54.809C80.1999 55.0254 81.0974 55.1337 82.1124 55.1337C82.1186 55.1337 82.1236 55.1319 82.1292 55.1319C82.1335 55.1319 82.136 55.1337 82.141 55.1337H84.8815C85.5287 55.1337 86.071 54.9407 86.5083 54.5547C86.7052 54.7477 86.9282 54.8926 87.1791 54.9888C87.4294 55.0856 87.663 55.1337 87.8785 55.1337H89.5625C90.0445 55.1337 90.5427 55.0793 91.0564 54.9716C91.57 54.8639 92.0328 54.707 92.4459 54.5026C92.8583 54.9235 93.5049 55.1342 94.387 55.1342H96.661V48.4147H95.3386V54.0817V54.0811ZM80.157 53.3092C79.9129 53.5434 79.6228 53.7364 79.2862 53.8881C79.0073 53.6545 78.7277 53.3664 78.4489 53.024C78.17 52.6821 77.9445 52.3557 77.773 52.0459C78.3252 51.818 78.7942 51.704 79.1812 51.704C79.5682 51.704 79.8725 51.7813 80.1328 51.9365C80.3931 52.0917 80.5229 52.3007 80.5229 52.5636C80.5229 52.8264 80.4005 53.0755 80.1564 53.3092H80.157ZM85.5138 53.7782C85.3138 53.9798 85.0268 54.0806 84.6529 54.0806H84.0442V51.8088C84.2535 51.7682 84.4566 51.7476 84.6529 51.7476C85.4269 51.7476 85.8138 52.1484 85.8138 52.9496C85.8138 53.3006 85.7138 53.5766 85.5144 53.7788L85.5138 53.7782Z" fill="#D9D9D9"/>
<path d="M99.6109 48.414H98.2785V55.1336H99.6109V48.414Z" fill="#D9D9D9"/>
<path d="M29.0555 66.6319H27.6853V67.7371H29.0555V66.6319Z" fill="#D9D9D9"/>
<path d="M27.1523 66.6319H25.7821V67.7371H27.1523V66.6319Z" fill="#D9D9D9"/>
<path d="M51.635 64.8074H51.0449C50.7213 64.8074 50.4262 64.7433 50.1598 64.6145C49.8933 64.4856 49.7504 64.2961 49.7318 64.0441V61.5089H48.3994V63.7984C48.3994 64.1025 48.3087 64.3465 48.128 64.5309C47.9472 64.7152 47.7298 64.8069 47.4764 64.8069H46.8863V61.5084H45.5539V64.8069H44.6023C44.2278 64.8069 43.9539 64.7822 43.7793 64.7324C43.6048 64.6826 43.4445 64.5847 43.2992 64.4387C43.337 64.2514 43.3563 64.1025 43.3563 63.9914V61.1402H42.0239V63.7984C42.0239 64.1374 41.9413 64.3906 41.7767 64.5572C41.6115 64.7238 41.4022 64.8069 41.1487 64.8069C40.8953 64.8069 40.6524 64.7382 40.44 64.6007C40.2276 64.4633 40.1214 64.2628 40.1214 64V61.5089H38.789V63.7984C38.789 64.1025 38.6983 64.3465 38.5175 64.5309C38.3368 64.7152 38.1194 64.8069 37.866 64.8069H37.2759V61.5084H35.9435V64.8069H33.5645C33.3235 64.8069 33.1409 64.7439 33.0172 64.6185C32.8936 64.4931 32.8315 64.2777 32.8315 63.9737V60.4558H30.7861C29.9804 60.4558 29.3903 60.6505 29.0164 61.0394C28.6419 61.4282 28.4549 61.9155 28.4549 62.4996V64.8069H26.761C25.8287 64.8069 25.3622 64.4152 25.3622 63.6312V61.5084H24.0317V63.8242C24.0317 64.4089 24.2186 64.8945 24.5932 65.2805C24.9671 65.6664 25.5572 65.8594 26.3629 65.8594H29.7885V62.6926C29.7885 61.9029 30.255 61.5084 31.1873 61.5084H31.501V64.1666C31.501 64.6815 31.6439 65.0921 31.929 65.399C32.2147 65.7059 32.6265 65.8594 33.1657 65.8594H38.266C38.8368 65.8594 39.2996 65.6636 39.6555 65.2719C39.8331 65.4649 40.0505 65.6109 40.3071 65.7105C40.5642 65.8102 40.9077 65.86 41.3394 65.86C41.6693 65.86 41.9724 65.7987 42.2482 65.6756C42.524 65.553 42.7507 65.3835 42.9283 65.1665C43.1501 65.4242 43.3836 65.6023 43.6277 65.7019C43.8719 65.801 44.1967 65.8537 44.603 65.86H47.8764C48.4473 65.86 48.9069 65.667 49.256 65.281C49.6113 65.667 50.1281 65.86 50.807 65.86H52.9668V61.1402H51.6344V64.8069L51.635 64.8074Z" fill="#D9D9D9"/>
<path d="M55.1985 61.7105C54.8085 61.9035 54.5053 62.1709 54.2898 62.5134C54.0743 62.8553 53.9662 63.2372 53.9662 63.6581C53.9662 64.079 54.0662 64.4828 54.2656 64.816C54.4656 65.1493 54.7414 65.407 55.0936 65.588C55.4458 65.7695 55.8402 65.86 56.2781 65.86H56.411L56.9247 64.8074H56.5061C56.1315 64.8074 55.8445 64.7067 55.6451 64.5051C55.4451 64.3035 55.3458 64.0269 55.3458 63.6759C55.3458 62.8747 55.7327 62.4739 56.5067 62.4739C56.6905 62.4739 56.8937 62.4945 57.1154 62.5351V65.5616C57.1154 65.848 57.0552 66.0747 56.9347 66.2414C56.8142 66.408 56.6377 66.5334 56.4067 66.6188C56.175 66.7035 55.8626 66.7694 55.4694 66.8157L56.0023 67.9124C56.5222 67.8362 56.9589 67.7177 57.3105 67.5573C57.662 67.397 57.9397 67.1525 58.1428 66.8249C58.3459 66.4974 58.4472 66.0616 58.4472 65.5175V61.5966C57.6223 61.4797 56.9912 61.4213 56.5539 61.4213C56.0402 61.4213 55.588 61.5181 55.1979 61.7111L55.1985 61.7105Z" fill="#D9D9D9"/>
<path d="M57.7819 60.1666H56.6874C56.6365 60.1025 56.611 60.0178 56.611 59.9124C56.611 59.807 56.6409 59.7251 56.7017 59.6667C56.762 59.6083 56.8396 59.5791 56.9347 59.5791C57.0042 59.5791 57.0931 59.5969 57.2011 59.6318L57.439 58.9652C57.2297 58.9068 57.0328 58.8776 56.8489 58.8776C56.5191 58.8776 56.2576 58.9623 56.0638 59.1319C55.87 59.3014 55.7737 59.5298 55.7737 59.8162C55.7737 59.933 55.8054 60.0504 55.8688 60.1672H55.4023L55.2309 60.9128H57.7807V60.1672L57.7819 60.1666Z" fill="#D9D9D9"/>
<path d="M66.9923 64.8074H66.0407C65.6662 64.8074 65.3811 64.7227 65.1842 64.5532C65.2985 64.2898 65.3556 63.992 65.3556 63.6581C65.3556 63.2372 65.2475 62.8553 65.032 62.5134C64.8165 62.1715 64.5133 61.9035 64.1232 61.7105C63.7332 61.5175 63.281 61.4208 62.7673 61.4208C62.3294 61.4208 61.6983 61.4792 60.874 61.596V64.8069H59.0658C59.0279 64.8069 59.0025 64.8172 58.9894 64.8378C58.977 64.8584 58.9702 64.8773 58.9702 64.8945V65.7718C58.9702 65.7895 58.9764 65.8084 58.9894 65.8285C59.0019 65.8491 59.0273 65.8594 59.0658 65.8594H63.0431C63.6903 65.8594 64.2326 65.6664 64.6699 65.2805C64.8668 65.4734 65.0898 65.6183 65.3407 65.7145C65.591 65.8113 65.8246 65.8594 66.0401 65.8594H68.3142V59.1399H66.9917V64.8069L66.9923 64.8074ZM63.6766 64.5045C63.4766 64.7061 63.1897 64.8069 62.8157 64.8069H62.207V62.5351C62.4163 62.4945 62.6194 62.4739 62.8157 62.4739C63.5897 62.4739 63.9767 62.8747 63.9767 63.6759C63.9767 64.0269 63.8767 64.3029 63.6773 64.5051L63.6766 64.5045Z" fill="#D9D9D9"/>
<path d="M71.2652 59.1404H69.9329V65.86H71.2652V59.1404Z" fill="#D9D9D9"/>
<path d="M76.4891 59.6581H75.1189V60.7633H76.4891V59.6581Z" fill="#D9D9D9"/>
<path d="M81.4273 66.6319H80.057V67.7371H81.4273V66.6319Z" fill="#D9D9D9"/>
<path d="M83.3298 66.6319H81.9596V67.7371H83.3298V66.6319Z" fill="#D9D9D9"/>
<path d="M91.8272 59.6581H90.4569V60.7633H91.8272V59.6581Z" fill="#D9D9D9"/>
<path d="M93.7304 59.6581H92.3602V60.7633H93.7304V59.6581Z" fill="#D9D9D9"/>
<path d="M98.2878 59.1404V64.8074H97.3362C96.9113 64.8074 96.6032 64.6992 96.4132 64.4827C96.451 64.3247 96.4703 64.1609 96.4703 63.9914V59.1404H95.1379V63.7984C95.1379 64.1025 95.0479 64.3465 94.8665 64.5309C94.6857 64.7152 94.4683 64.8069 94.2149 64.8069H94.0248C93.6565 64.8069 93.3838 64.7822 93.2068 64.7324C93.0291 64.6826 92.8707 64.5875 92.731 64.4472C92.7627 64.2892 92.7788 64.1374 92.7788 63.9908V61.4208H91.4464V63.7979C91.4464 64.1019 91.3564 64.3459 91.1756 64.5303C90.9949 64.7147 90.7775 64.8063 90.524 64.8063H89.6675C89.2929 64.8063 89.0078 64.7215 88.8109 64.552C88.9252 64.2886 88.9823 63.9908 88.9823 63.657C88.9823 63.2361 88.8742 62.8541 88.6587 62.5122C88.4432 62.1704 88.14 61.9024 87.75 61.7094C87.3599 61.5164 86.9077 61.4196 86.394 61.4196C85.9561 61.4196 85.325 61.478 84.5007 61.5948V64.8057H83.9299C83.5615 64.8057 83.2889 64.7811 83.1118 64.7313C82.9342 64.6815 82.7758 64.5864 82.636 64.4461C82.6677 64.288 82.6839 64.1363 82.6839 63.9897V61.4196H81.3515V63.7967C81.3515 64.1008 81.2614 64.3447 81.0807 64.5291C80.8999 64.7135 80.6825 64.8052 80.4291 64.8052H77.4413C77.0034 64.8052 76.6835 64.6797 76.4804 64.4278V61.5067H75.1481V65.6298C75.1481 65.9161 75.1033 66.14 75.0151 66.3009C74.9263 66.4618 74.7928 66.5769 74.6157 66.6474C74.4381 66.7178 74.194 66.7728 73.8828 66.814L74.4157 67.9107C75.0251 67.8465 75.5207 67.6346 75.9046 67.2744C76.2885 66.9148 76.4804 66.3548 76.4804 65.5948V65.5863C76.6612 65.6853 76.8388 65.7552 77.0134 65.7999C77.0165 65.809 77.0165 65.8176 77.0227 65.8273C77.0357 65.848 77.0606 65.8583 77.0991 65.8583H80.8291C81.1335 65.8583 81.4111 65.7999 81.6614 65.683C81.9118 65.5662 82.1199 65.4024 82.2845 65.1917C82.5 65.4374 82.7286 65.6086 82.9696 65.7048C83.2106 65.801 83.5311 65.8525 83.9305 65.8583H86.671C87.3183 65.8583 87.8605 65.6653 88.2978 65.2793C88.4947 65.4723 88.7177 65.6172 88.9687 65.7134C89.219 65.8102 89.4525 65.8583 89.6681 65.8583H90.924C91.2284 65.8583 91.5061 65.7999 91.7564 65.683C92.0067 65.5662 92.2148 65.4024 92.3794 65.1917C92.5949 65.4374 92.8235 65.6086 93.0645 65.7048C93.3055 65.801 93.626 65.8525 94.0254 65.8583H94.6155C95.1864 65.8583 95.6429 65.671 95.9858 65.2965C96.1821 65.4837 96.4045 65.6241 96.6517 65.7174C96.8989 65.8107 97.1275 65.8577 97.3368 65.8577H99.6108V59.1382H98.2884L98.2878 59.1404ZM87.3027 64.5045C87.1027 64.7061 86.8158 64.8069 86.4418 64.8069H85.8331V62.5351C86.0424 62.4945 86.2455 62.4739 86.4418 62.4739C87.2158 62.4739 87.6028 62.8747 87.6028 63.6759C87.6028 64.0269 87.5027 64.3029 87.3034 64.5051L87.3027 64.5045Z" fill="#D9D9D9"/>
</g>
<defs>
<clipPath id="clip0_1_80">
<rect width="117" height="40" fill="white" transform="translate(24 40)"/>
</clipPath>
</defs>
</svg>
