<?xml version="1.0" encoding="UTF-8"?>
<svg id="Layer_1" data-name="Layer 1" xmlns="http://www.w3.org/2000/svg" viewBox="0 0 1883.6 698.5">
  <defs>
    <style>
      .cls-1 {
        fill: #1bc0be;
      }

      .cls-2 {
        fill: #dbdbdb;
      }

      .cls-3 {
        fill: #212856;
      }

      .cls-4 {
        fill: #fff;
      }

      .cls-5 {
        fill: #68eae0;
      }
    </style>
  </defs>
  <g>
    <g>
      <g>
        <polygon class="cls-3" points="1444.31 552.8 1444.96 553.27 1444.74 553.43 1444.31 552.8"/>
        <polygon class="cls-1" points="1880.08 145.1 1880.08 251.74 1445.64 552.8 1444.96 553.27 1444.96 446.64 1880.08 145.1"/>
      </g>
      <polygon class="cls-3" points="1445.64 552.8 1445.2 553.43 1444.96 553.27 1445.64 552.8"/>
    </g>
    <path class="cls-2" d="M1880.08,288.89l-435.12,301.52v106.59l-.65-.43.43.63.22-.14.03-.03.22.16.44-.63,270.02-187.1v143.7l164.41-113.96v-143.7h.01v-106.63ZM1740.35,529.43v-37.09l.04-.03,114.85-79.58.13-.09v37.08l-.14.1-114.88,79.61Z"/>
    <polygon class="cls-1" points="1880.07 1.3 1880.07 107.92 1715.66 221.88 1715.66 115.23 1880.07 1.3"/>
    <polygon class="cls-5" points="1444.96 446.64 1444.96 553.27 1444.31 552.8 1329.13 473 1329.13 366.38 1444.96 446.64"/>
    <polygon class="cls-4" points="1444.96 590.41 1444.96 697 1444.31 696.57 1329.13 616.76 1329.13 510.14 1444.96 590.41"/>
  </g>
  <g>
    <g>
      <path class="cls-4" d="M5.16,587.63c-1.38-4.06-1.64-7.34-1.64-16.05s.26-11.91,1.64-16.05c3.11-9.41,10.96-14.24,21.41-14.24s18.3,4.83,21.41,14.24c1.38,4.14,1.64,7.34,1.64,16.05s-.26,12-1.64,16.05c-3.19,9.76-10.96,14.24-21.41,14.24s-18.21-4.49-21.41-14.24ZM35.8,584.17c.69-2.07.95-4.92.95-12.6s-.26-10.53-.95-12.6c-1.29-4.06-4.4-6.47-9.24-6.47s-7.94,2.42-9.23,6.47c-.69,2.07-.95,4.92-.95,12.6s.26,10.53.95,12.6c1.3,4.06,4.4,6.47,9.23,6.47s7.94-2.42,9.24-6.47Z"/>
      <path class="cls-4" d="M59.96,600.92c-.6,0-.86-.26-.86-.86v-40.05c0-.6.26-.86.86-.86h10.36c.6,0,.86.26.86.86v3.54h.09c1.99-3.37,5.7-5.35,10.88-5.35,2.76,0,5.52.86,7.34,2.5.43.35.52.78.26,1.21l-4.83,8.81c-.26.43-.6.43-1.21.17-2.24-1.3-4.23-1.99-6.04-1.9-4.49.26-6.47,3.45-6.47,9.07v22.01c0,.6-.26.86-.86.86h-10.36Z"/>
      <path class="cls-4" d="M95.25,611.11c-.35-.43-.35-.86.09-1.29l6.13-6.22c.43-.43.86-.43,1.3,0,2.67,2.33,5.27,3.62,8.63,3.62,5.87,0,8.37-3.02,8.37-9.24v-3.54h-.09c-1.81,3.02-5.44,4.83-10.7,4.83-6.91,0-11.83-3.45-13.98-10.1-.95-3.11-1.38-5.96-1.38-10.44s.43-7.42,1.38-10.45c2.16-6.65,7.08-10.1,13.98-10.1,5.27,0,8.89,1.81,10.7,4.83h.09v-3.02c0-.6.26-.86.86-.86h10.36c.6,0,.86.26.86.86v36.43c0,13.98-6.91,20.98-20.8,20.98-6.22,0-12.78-2.59-15.8-6.3ZM118.99,584.61c.6-1.64.78-3.2.78-5.87s-.17-4.23-.78-5.87c-1.04-3.02-2.85-4.49-6.22-4.49-3.11,0-5.18,1.47-6.22,4.49-.6,1.64-.69,3.19-.69,5.87s.09,4.23.69,5.87c1.04,3.02,3.11,4.49,6.22,4.49,3.37,0,5.18-1.47,6.22-4.49Z"/>
      <path class="cls-4" d="M167.23,600.92c-.6,0-.86-.26-.86-.86v-2.76h-.09c-2.16,2.76-5.61,4.58-11.48,4.58-7.42,0-13.9-3.8-13.9-12.78s6.99-13.47,17.35-13.47h7.42c.35,0,.52-.17.52-.52v-1.55c0-3.89-1.9-5.7-8.55-5.7-4.23,0-7.34,1.21-9.32,2.68-.43.35-.86.26-1.12-.17l-3.89-6.82c-.26-.52-.17-.95.26-1.21,3.54-2.5,8.63-4.14,15.54-4.14,13.55,0,18.56,4.75,18.56,15.11v26.76c0,.6-.26.86-.86.86h-9.58ZM166.2,587.02v-2.85c0-.34-.17-.52-.52-.52h-5.87c-4.92,0-7.42,1.55-7.42,4.75,0,2.93,1.98,4.4,6.04,4.4,5.18,0,7.77-1.9,7.77-5.78Z"/>
      <path class="cls-4" d="M214.27,600.92c-.6,0-.86-.26-.86-.86v-24c0-4.57-2.07-7.6-6.47-7.6-4.14,0-6.56,3.02-6.56,7.6v24c0,.6-.26.86-.86.86h-10.36c-.6,0-.86-.26-.86-.86v-40.05c0-.6.26-.86.86-.86h10.36c.6,0,.86.26.86.86v2.94h.09c1.99-2.68,5.27-4.75,10.79-4.75,9.32,0,14.24,6.3,14.24,15.54v26.33c0,.6-.26.86-.86.86h-10.36Z"/>
      <path class="cls-4" d="M236.87,552.5c-.6,0-.86-.26-.86-.86v-8.54c0-.6.26-.86.86-.86h10.36c.6,0,.86.26.86.86v8.54c0,.6-.26.86-.86.86h-10.36ZM236.87,600.92c-.6,0-.86-.26-.86-.86v-40.05c0-.6.26-.86.86-.86h10.36c.6,0,.86.26.86.86v40.05c0,.6-.26.86-.86.86h-10.36Z"/>
      <path class="cls-4" d="M257.85,600.92c-.6,0-.86-.26-.86-.86v-7.77c0-.26.09-.6.26-.86l19.85-22.19v-.17h-18.13c-.6,0-.86-.26-.86-.86v-8.2c0-.6.26-.86.86-.86h31.51c.6,0,.86.26.86.86v8.2c0,.35-.09.6-.26.86l-19.68,21.75v.17h19.08c.6,0,.86.26.86.86v8.2c0,.6-.26.86-.86.86h-32.63Z"/>
      <path class="cls-4" d="M325.25,600.92c-.6,0-.86-.26-.86-.86v-2.76h-.09c-2.16,2.76-5.61,4.58-11.48,4.58-7.42,0-13.9-3.8-13.9-12.78s6.99-13.47,17.35-13.47h7.42c.35,0,.52-.17.52-.52v-1.55c0-3.89-1.9-5.7-8.55-5.7-4.23,0-7.34,1.21-9.32,2.68-.43.35-.86.26-1.12-.17l-3.89-6.82c-.26-.52-.17-.95.26-1.21,3.54-2.5,8.63-4.14,15.54-4.14,13.55,0,18.56,4.75,18.56,15.11v26.76c0,.6-.26.86-.86.86h-9.58ZM324.22,587.02v-2.85c0-.34-.17-.52-.52-.52h-5.87c-4.92,0-7.42,1.55-7.42,4.75,0,2.93,1.98,4.4,6.04,4.4,5.18,0,7.77-1.9,7.77-5.78Z"/>
      <path class="cls-4" d="M360.46,601.44c-9.67,0-13.29-4.31-13.29-13.9v-18.99c0-.35-.17-.52-.52-.52h-2.59c-.6,0-.86-.26-.86-.86v-7.17c0-.6.26-.86.86-.86h2.59c.35,0,.52-.17.52-.52v-11.22c0-.6.26-.86.86-.86h10.27c.6,0,.86.26.86.86v11.22c0,.35.17.52.52.52h5.35c.6,0,.86.26.86.86v7.17c0,.6-.26.86-.86.86h-5.35c-.34,0-.52.17-.52.52v18.47c0,3.11,1.04,4.14,3.8,4.14h2.07c.6,0,.86.26.86.86v8.55c0,.6-.26.86-.86.86h-4.57Z"/>
      <path class="cls-4" d="M375.73,552.5c-.6,0-.86-.26-.86-.86v-8.54c0-.6.26-.86.86-.86h10.36c.6,0,.86.26.86.86v8.54c0,.6-.26.86-.86.86h-10.36ZM375.73,600.92c-.6,0-.86-.26-.86-.86v-40.05c0-.6.26-.86.86-.86h10.36c.6,0,.86.26.86.86v40.05c0,.6-.26.86-.86.86h-10.36Z"/>
      <path class="cls-4" d="M397.13,590.13c-.95-3.02-1.38-5.96-1.38-10.1s.43-7.08,1.38-10.1c2.42-7.6,9.15-11.74,18.13-11.74s15.71,4.14,18.13,11.74c.95,3.02,1.38,5.96,1.38,10.1s-.43,7.08-1.38,10.1c-2.42,7.6-9.15,11.74-18.13,11.74s-15.71-4.14-18.13-11.74ZM421.74,587.2c.6-1.98.78-3.62.78-7.17s-.17-5.18-.78-7.16c-.95-3.02-3.11-4.49-6.47-4.49s-5.52,1.47-6.47,4.49c-.6,1.99-.78,3.62-.78,7.16s.17,5.18.78,7.17c.95,3.02,3.11,4.49,6.47,4.49s5.52-1.47,6.47-4.49Z"/>
      <path class="cls-4" d="M469.55,600.92c-.6,0-.86-.26-.86-.86v-24c0-4.57-2.07-7.6-6.47-7.6-4.14,0-6.56,3.02-6.56,7.6v24c0,.6-.26.86-.86.86h-10.36c-.6,0-.86-.26-.86-.86v-40.05c0-.6.26-.86.86-.86h10.36c.6,0,.86.26.86.86v2.94h.09c1.99-2.68,5.27-4.75,10.79-4.75,9.32,0,14.24,6.3,14.24,15.54v26.33c0,.6-.26.86-.86.86h-10.36Z"/>
      <path class="cls-4" d="M511.83,543.09c0-.6.26-.86.86-.86h37.64c.6,0,.86.26.86.86v9.23c0,.6-.26.86-.86.86h-25.29c-.35,0-.52.17-.52.52v11.65c0,.35.17.52.52.52h21.06c.6,0,.86.26.86.86v9.15c0,.6-.26.86-.86.86h-21.06c-.35,0-.52.17-.52.52v12.17c0,.35.17.52.52.52h25.29c.6,0,.86.26.86.86v9.23c0,.6-.26.86-.86.86h-37.64c-.6,0-.86-.26-.86-.86v-56.97Z"/>
      <path class="cls-4" d="M584.42,600.92c-.52,0-.95-.26-1.3-.78l-7.51-11.39h-.09l-7.42,11.39c-.43.52-.95.78-1.38.78h-11.13c-.69,0-.86-.43-.6-.86l14.07-20.8-13.03-19.25c-.26-.43-.09-.86.6-.86h11.22c.6,0,1.12.26,1.47.78l6.3,9.84h.09l6.39-9.84c.43-.52.86-.78,1.38-.78h11.13c.78,0,.95.43.69.86l-13.03,19.25,14.07,20.8c.26.43.09.86-.69.86h-11.22Z"/>
      <path class="cls-4" d="M602.53,590.05c-.86-2.5-1.3-5.61-1.3-10.02s.43-7.51,1.3-10.01c2.85-7.94,9.06-11.83,18.04-11.83,7.25,0,12.78,3.28,15.8,7.86.26.43.26.86-.17,1.21l-7.51,4.92c-.52.35-.95.26-1.29-.17-1.81-2.5-3.63-3.62-6.65-3.62-3.19,0-5.52,1.47-6.47,4.49-.6,1.73-.78,3.71-.78,7.16s.17,5.44.78,7.17c.95,3.02,3.28,4.49,6.47,4.49,3.02,0,4.83-1.12,6.65-3.62.34-.43.78-.52,1.29-.17l7.51,4.92c.43.34.43.78.17,1.21-3.02,4.57-8.55,7.86-15.8,7.86-8.98,0-15.19-3.89-18.04-11.83Z"/>
      <path class="cls-4" d="M644.21,589.96c-.95-2.67-1.47-5.52-1.47-9.93s.43-7.34,1.38-10.01c2.67-7.6,8.98-11.83,17.95-11.83s15.62,4.4,18.04,11.74c.95,2.85,1.38,5.78,1.38,12.86,0,.6-.35.86-.95.86h-25.29c-.35,0-.52.17-.52.52.09.86.26,1.64.52,2.33,1.12,3.71,4.23,5.52,8.63,5.52,4.14,0,7.17-1.38,9.58-3.71.52-.43.95-.43,1.21,0l5.7,5.35c.43.43.43.86.09,1.21-4.06,4.23-10.1,6.99-17.78,6.99-9.75,0-15.8-4.32-18.47-11.91ZM669.07,575.63c.35,0,.52-.17.52-.52,0-1.3-.17-2.16-.43-3.11-.95-2.85-3.54-4.57-6.99-4.57s-6.04,1.73-6.99,4.57c-.26.95-.43,1.81-.43,3.11,0,.35.17.52.52.52h13.81Z"/>
      <path class="cls-4" d="M703.08,601.44c-9.32,0-12.95-3.97-12.95-13.29v-45.06c0-.6.26-.86.86-.86h10.36c.6,0,.86.26.86.86v44.11c0,2.85,1.12,3.97,3.63,3.97h1.81c.6,0,.86.26.86.86v8.55c0,.6-.26.86-.86.86h-4.57Z"/>
      <path class="cls-4" d="M729.31,601.44c-9.32,0-12.95-3.97-12.95-13.29v-45.06c0-.6.26-.86.86-.86h10.36c.6,0,.86.26.86.86v44.11c0,2.85,1.12,3.97,3.63,3.97h1.81c.6,0,.86.26.86.86v8.55c0,.6-.26.86-.86.86h-4.57Z"/>
      <path class="cls-4" d="M742.17,589.96c-.95-2.67-1.47-5.52-1.47-9.93s.43-7.34,1.38-10.01c2.67-7.6,8.98-11.83,17.95-11.83s15.62,4.4,18.04,11.74c.95,2.85,1.38,5.78,1.38,12.86,0,.6-.35.86-.95.86h-25.29c-.35,0-.52.17-.52.52.09.86.26,1.64.52,2.33,1.12,3.71,4.23,5.52,8.63,5.52,4.14,0,7.17-1.38,9.58-3.71.52-.43.95-.43,1.21,0l5.7,5.35c.43.43.43.86.09,1.21-4.06,4.23-10.1,6.99-17.78,6.99-9.75,0-15.8-4.32-18.47-11.91ZM767.03,575.63c.35,0,.52-.17.52-.52,0-1.3-.17-2.16-.43-3.11-.95-2.85-3.54-4.57-6.99-4.57s-6.04,1.73-6.99,4.57c-.26.95-.43,1.81-.43,3.11,0,.35.17.52.52.52h13.81Z"/>
      <path class="cls-4" d="M814.23,600.92c-.6,0-.86-.26-.86-.86v-24c0-4.57-2.07-7.6-6.47-7.6-4.14,0-6.56,3.02-6.56,7.6v24c0,.6-.26.86-.86.86h-10.36c-.6,0-.86-.26-.86-.86v-40.05c0-.6.26-.86.86-.86h10.36c.6,0,.86.26.86.86v2.94h.09c1.99-2.68,5.27-4.75,10.79-4.75,9.32,0,14.24,6.3,14.24,15.54v26.33c0,.6-.26.86-.86.86h-10.36Z"/>
      <path class="cls-4" d="M835.2,590.05c-.86-2.5-1.29-5.61-1.29-10.02s.43-7.51,1.29-10.01c2.85-7.94,9.07-11.83,18.04-11.83,7.25,0,12.78,3.28,15.8,7.86.26.43.26.86-.17,1.21l-7.51,4.92c-.52.35-.95.26-1.3-.17-1.81-2.5-3.62-3.62-6.65-3.62-3.19,0-5.52,1.47-6.47,4.49-.6,1.73-.78,3.71-.78,7.16s.17,5.44.78,7.17c.95,3.02,3.28,4.49,6.47,4.49,3.02,0,4.83-1.12,6.65-3.62.35-.43.78-.52,1.3-.17l7.51,4.92c.43.34.43.78.17,1.21-3.02,4.57-8.54,7.86-15.8,7.86-8.98,0-15.19-3.89-18.04-11.83Z"/>
      <path class="cls-4" d="M876.88,589.96c-.95-2.67-1.47-5.52-1.47-9.93s.43-7.34,1.38-10.01c2.68-7.6,8.98-11.83,17.95-11.83s15.62,4.4,18.04,11.74c.95,2.85,1.38,5.78,1.38,12.86,0,.6-.35.86-.95.86h-25.29c-.35,0-.52.17-.52.52.09.86.26,1.64.52,2.33,1.12,3.71,4.23,5.52,8.63,5.52,4.14,0,7.17-1.38,9.58-3.71.52-.43.95-.43,1.21,0l5.7,5.35c.43.43.43.86.09,1.21-4.06,4.23-10.1,6.99-17.78,6.99-9.76,0-15.8-4.32-18.47-11.91ZM901.74,575.63c.35,0,.52-.17.52-.52,0-1.3-.17-2.16-.43-3.11-.95-2.85-3.54-4.57-6.99-4.57s-6.04,1.73-6.99,4.57c-.26.95-.43,1.81-.43,3.11,0,.35.17.52.52.52h13.81Z"/>
      <path class="cls-4" d="M940.66,593.84c-.43-.43-.52-.95-.09-1.47l6.56-7.51c.35-.43.78-.52,1.29-.09,3.89,3.11,9.15,6.04,15.37,6.04s9.58-2.85,9.58-6.99c0-3.45-2.07-5.61-9.07-6.56l-3.11-.43c-12.17-1.73-18.56-7.17-18.56-17.61s8.11-17.95,20.8-17.95c7.94,0,15.02,2.33,19.94,6.13.52.35.6.78.17,1.3l-5.27,7.85c-.35.43-.78.52-1.21.26-4.49-3.02-8.81-4.49-13.64-4.49-5.18,0-7.86,2.68-7.86,6.39,0,3.36,2.25,5.52,9.15,6.47l3.11.43c12.17,1.73,18.47,6.99,18.47,17.78s-7.85,18.47-23.05,18.47c-9.24,0-18.04-3.63-22.62-8.03Z"/>
      <path class="cls-4" d="M993.99,590.13c-.95-3.02-1.38-5.96-1.38-10.1s.43-7.08,1.38-10.1c2.42-7.6,9.15-11.74,18.13-11.74s15.71,4.14,18.13,11.74c.95,3.02,1.38,5.96,1.38,10.1s-.43,7.08-1.38,10.1c-2.42,7.6-9.15,11.74-18.13,11.74s-15.71-4.14-18.13-11.74ZM1018.59,587.2c.6-1.98.78-3.62.78-7.17s-.17-5.18-.78-7.16c-.95-3.02-3.11-4.49-6.47-4.49s-5.52,1.47-6.47,4.49c-.6,1.99-.78,3.62-.78,7.16s.17,5.18.78,7.17c.95,3.02,3.11,4.49,6.47,4.49s5.52-1.47,6.47-4.49Z"/>
      <path class="cls-4" d="M1039.65,590.05c-.86-2.5-1.3-5.61-1.3-10.02s.43-7.51,1.3-10.01c2.85-7.94,9.06-11.83,18.04-11.83,7.25,0,12.78,3.28,15.8,7.86.26.43.26.86-.17,1.21l-7.51,4.92c-.52.35-.95.26-1.29-.17-1.81-2.5-3.63-3.62-6.65-3.62-3.19,0-5.52,1.47-6.47,4.49-.6,1.73-.78,3.71-.78,7.16s.17,5.44.78,7.17c.95,3.02,3.28,4.49,6.47,4.49,3.02,0,4.83-1.12,6.65-3.62.34-.43.78-.52,1.29-.17l7.51,4.92c.43.34.43.78.17,1.21-3.02,4.57-8.55,7.86-15.8,7.86-8.98,0-15.19-3.89-18.04-11.83Z"/>
      <path class="cls-4" d="M1082.8,552.5c-.6,0-.86-.26-.86-.86v-8.54c0-.6.26-.86.86-.86h10.36c.6,0,.86.26.86.86v8.54c0,.6-.26.86-.86.86h-10.36ZM1082.8,600.92c-.6,0-.86-.26-.86-.86v-40.05c0-.6.26-.86.86-.86h10.36c.6,0,.86.26.86.86v40.05c0,.6-.26.86-.86.86h-10.36Z"/>
      <path class="cls-4" d="M1104.29,589.96c-.95-2.67-1.47-5.52-1.47-9.93s.43-7.34,1.38-10.01c2.67-7.6,8.98-11.83,17.95-11.83s15.62,4.4,18.04,11.74c.95,2.85,1.38,5.78,1.38,12.86,0,.6-.35.86-.95.86h-25.29c-.35,0-.52.17-.52.52.09.86.26,1.64.52,2.33,1.12,3.71,4.23,5.52,8.63,5.52,4.14,0,7.17-1.38,9.58-3.71.52-.43.95-.43,1.21,0l5.7,5.35c.43.43.43.86.09,1.21-4.06,4.23-10.1,6.99-17.78,6.99-9.75,0-15.8-4.32-18.47-11.91ZM1129.15,575.63c.35,0,.52-.17.52-.52,0-1.3-.17-2.16-.43-3.11-.95-2.85-3.54-4.57-6.99-4.57s-6.04,1.73-6.99,4.57c-.26.95-.43,1.81-.43,3.11,0,.35.17.52.52.52h13.81Z"/>
      <path class="cls-4" d="M1164.53,601.44c-9.67,0-13.29-4.31-13.29-13.9v-18.99c0-.35-.17-.52-.52-.52h-2.59c-.6,0-.86-.26-.86-.86v-7.17c0-.6.26-.86.86-.86h2.59c.35,0,.52-.17.52-.52v-11.22c0-.6.26-.86.86-.86h10.27c.6,0,.86.26.86.86v11.22c0,.35.17.52.52.52h5.35c.6,0,.86.26.86.86v7.17c0,.6-.26.86-.86.86h-5.35c-.35,0-.52.17-.52.52v18.47c0,3.11,1.04,4.14,3.8,4.14h2.07c.6,0,.86.26.86.86v8.55c0,.6-.26.86-.86.86h-4.57Z"/>
      <path class="cls-4" d="M1181.52,616.46c-.6,0-.86-.26-.86-.86v-8.46c0-.6.26-.86.86-.86h1.81c3.02,0,4.57-1.21,5.7-4.31l1.12-3.11-15.54-38.84c-.17-.6.09-.86.69-.86h11.05c.52,0,.86.26,1.04.86l8.37,24.17h.17l7.77-24.17c.17-.6.52-.86,1.04-.86h10.7c.69,0,.95.26.69.86l-16.92,44.46c-3.54,9.32-7.25,12-14.76,12h-2.94Z"/>
    </g>
    <g>
      <g>
        <rect class="cls-4" x="19.59" y="156.69" width="21.97" height="19.23"/>
        <rect class="cls-4" x="50.11" y="156.69" width="21.97" height="19.23"/>
        <rect class="cls-4" x="151.14" y="278.02" width="21.98" height="19.23"/>
        <rect class="cls-4" x="120.62" y="278.02" width="21.98" height="19.23"/>
        <path class="cls-4" d="M198,246.27h-15.26c-5.9,0-10.28-.43-13.12-1.3-2.85-.86-5.39-2.52-7.63-4.96.51-2.75.76-5.39.76-7.94v-44.72h-21.37v41.36c0,5.29-1.45,9.54-4.35,12.74-2.9,3.2-6.39,4.81-10.45,4.81h-39.07c-3.87,0-6.79-1.09-8.78-3.28-1.98-2.19-2.98-5.93-2.98-11.22l.15-41.36c-13.23-2.03-23.35-3.05-30.37-3.05-8.24,0-15.49,1.68-21.75,5.04-6.26,3.36-11.12,8.01-14.57,13.96-3.46,5.95-5.19,12.59-5.19,19.92s1.63,14.35,4.88,20.15c3.25,5.8,7.73,10.28,13.43,13.43,5.7,3.15,12.06,4.73,19.08,4.73h3.05l8.24-18.31h-7.94c-6,0-10.61-1.75-13.81-5.27-3.2-3.51-4.81-8.32-4.81-14.42,0-13.94,6.21-20.91,18.62-20.91,2.85,0,6.05.36,9.61,1.07v28.39c0,9.06,2.29,16.23,6.87,21.52,4.58,5.29,11.19,7.94,19.84,7.94h51.89c4.88,0,9.33-1.02,13.35-3.05,4.02-2.03,7.35-4.88,10-8.55,3.46,4.27,7.12,7.25,10.99,8.93,3.86,1.68,9,2.57,15.41,2.67h36.47v-75.7h-21.21v57.38Z"/>
        <rect class="cls-4" x="197.54" y="156.69" width="21.98" height="19.23"/>
        <path class="cls-4" d="M255,192.4c-6.26,3.36-11.12,8.01-14.57,13.96-3.46,5.95-5.19,12.59-5.19,19.92s1.6,14.35,4.81,20.15c3.21,5.8,7.63,10.28,13.28,13.43,5.65,3.15,11.98,4.73,19,4.73h2.14l8.24-18.31h-6.71c-6,0-10.61-1.75-13.81-5.27-3.2-3.51-4.81-8.32-4.81-14.42,0-13.94,6.21-20.91,18.62-20.91,2.95,0,6.2.36,9.77,1.07v52.65c0,4.98-.97,8.93-2.9,11.83-1.93,2.9-4.76,5.09-8.47,6.56-3.71,1.47-8.73,2.62-15.03,3.43l8.55,19.08c8.34-1.32,15.34-3.38,20.99-6.18,5.65-2.8,10.1-7.05,13.35-12.74,3.26-5.7,4.88-13.28,4.88-22.74v-68.22c-13.23-2.03-23.35-3.05-30.37-3.05-8.24,0-15.49,1.68-21.75,5.04Z"/>
        <rect class="cls-4" x="472.85" y="156.69" width="21.98" height="19.23"/>
        <rect class="cls-4" x="503.38" y="156.69" width="21.97" height="19.23"/>
        <path class="cls-4" d="M545.35,246.27h-15.26c-5.9,0-10.28-.43-13.12-1.3-2.85-.86-5.39-2.52-7.63-4.96.51-2.75.76-5.39.76-7.94v-44.72h-21.37v41.36c0,5.29-1.45,9.54-4.35,12.74-2.9,3.2-6.39,4.81-10.45,4.81h-13.74c-.07,0-.12.03-.19.03-.09,0-.17-.03-.27-.03-8.45,0-15.11-.41-19.99-1.22,4.88-4.07,8.75-8.67,11.6-13.81,2.85-5.14,4.27-10.2,4.27-15.19,0-5.39-1.91-10.53-5.72-15.41s-8.93-8.83-15.34-11.83c-6.41-3-13.28-4.5-20.6-4.5-6.1,0-12.11.84-18.01,2.52-5.9,1.68-12.77,4.2-20.6,7.55l-4.73,19.84c8.24,13.64,15.26,23.81,21.06,30.52-6,1.02-14.7,1.53-26.1,1.53-.02,0-.03.02-.05.02-.04,0-.06-.02-.1-.02h-3.05c-3.87,0-6.79-1.09-8.78-3.28-1.98-2.19-2.98-5.93-2.98-11.22v-84.09h-21.37v87.45c0,8.95,2.29,16.1,6.87,21.44,4.58,5.34,11.19,8.01,19.84,8.01h9.46s.06-.02.1-.02c.02,0,.03.02.05.02,19.13,0,36.12-1.89,50.97-5.65,12.51,3.76,26.91,5.65,43.19,5.65.1,0,.18-.03.27-.03.07,0,.11.03.19.03h20.15c4.88,0,9.33-1.02,13.35-3.05,4.02-2.03,7.35-4.88,10-8.55,3.46,4.27,7.12,7.25,10.99,8.93,3.86,1.68,9,2.57,15.41,2.67h36.47v-116.9h-21.21v98.59ZM428.37,232.84c-3.92,4.07-8.57,7.43-13.96,10.07-4.48-4.07-8.95-9.08-13.43-15.03-4.48-5.95-8.09-11.62-10.84-17.02,8.85-3.97,16.38-5.95,22.59-5.95s11.09,1.35,15.26,4.04c4.17,2.7,6.26,6.33,6.26,10.91s-1.96,8.91-5.88,12.97Z"/>
        <rect class="cls-4" x="592.5" y="147.69" width="21.37" height="116.9"/>
        <rect class="cls-4" x="680.56" y="156.69" width="21.97" height="19.23"/>
        <rect class="cls-4" x="711.08" y="156.69" width="21.97" height="19.23"/>
        <rect class="cls-4" x="809.67" y="278.02" width="21.98" height="19.23"/>
        <rect class="cls-4" x="779.15" y="278.02" width="21.98" height="19.23"/>
        <rect class="cls-4" x="1056.91" y="278.02" width="21.97" height="19.23"/>
        <path class="cls-4" d="M1147.71,246.27h-15.26c-3.36,0-6.74-1.02-10.15-3.05-3.41-2.03-5.78-4.83-7.1-8.39l-8.24-21.06c-3.16-8.14-8.32-14.57-15.49-19.31-7.17-4.73-15.59-7.1-25.26-7.1-10.17,0-19.69,2.34-28.54,7.02l7.78,17.4c5.29-2.54,11.14-3.82,17.55-3.82,5.8,0,10.78,1.35,14.96,4.04,4.17,2.7,7.27,6.54,9.31,11.52l7.02,16.94c-6.1,2.34-12.23,3.89-18.39,4.66-6.16.76-13.1,1.14-20.83,1.14h-27.01c-6,0-10.58-1.47-13.73-4.43,1.83-4.58,2.75-9.77,2.75-15.57,0-7.33-1.73-13.96-5.19-19.92-3.46-5.95-8.32-10.61-14.57-13.96-6.26-3.36-13.51-5.04-21.75-5.04-7.02,0-17.14,1.02-30.37,3.05v55.86h-9.16c-.07,0-.12.03-.19.03-.09,0-.17-.03-.27-.03-8.45,0-15.11-.41-19.99-1.22,4.88-4.07,8.75-8.67,11.6-13.81,2.85-5.14,4.27-10.2,4.27-15.19,0-5.39-1.91-10.53-5.72-15.41s-8.93-8.83-15.34-11.83c-6.41-3-13.28-4.5-20.6-4.5-6.1,0-12.11.84-18.01,2.52-5.9,1.68-12.77,4.2-20.6,7.55l-4.73,19.84c8.24,13.64,15.26,23.81,21.06,30.52-6,1.02-14.7,1.53-26.1,1.53-.02,0-.03.02-.05.02-.04,0-.06-.02-.1-.02-5.9,0-10.28-.43-13.12-1.3-2.85-.86-5.39-2.52-7.63-4.96.51-2.75.76-5.39.76-7.94v-44.72h-21.37v41.36c0,5.29-1.45,9.54-4.35,12.74-2.9,3.2-6.39,4.81-10.45,4.81h-36.63c-3.87,0-6.79-1.09-8.78-3.28-1.98-2.19-2.98-5.93-2.98-11.22l.15-41.36c-13.23-2.03-23.35-3.05-30.37-3.05-8.24,0-15.49,1.68-21.75,5.04-6.26,3.36-11.12,8.01-14.57,13.96-3.46,5.95-5.19,12.59-5.19,19.92s1.63,14.35,4.88,20.15c3.25,5.8,7.73,10.28,13.43,13.43,5.7,3.15,12.06,4.73,19.08,4.73h3.05l8.24-18.31h-7.94c-6,0-10.61-1.75-13.81-5.27-3.2-3.51-4.81-8.32-4.81-14.42,0-13.94,6.21-20.91,18.62-20.91,2.85,0,6.05.36,9.61,1.07v28.39c0,9.06,2.29,16.23,6.87,21.52,4.58,5.29,11.19,7.94,19.84,7.94h49.45c4.88,0,9.33-1.02,13.35-3.05,4.02-2.03,7.35-4.88,10-8.55,3.46,4.27,7.12,7.25,10.99,8.93,3.86,1.68,9,2.57,15.41,2.67.04,0,.06-.02.1-.02.02,0,.03.02.05.02,19.13,0,36.12-1.89,50.97-5.65,12.51,3.76,26.91,5.65,43.19,5.65.1,0,.18-.03.27-.03.07,0,.11.03.19.03h43.95c10.38,0,19.08-3.36,26.1-10.07,3.15,3.36,6.74,5.88,10.76,7.55,4.02,1.68,7.76,2.52,11.22,2.52h27.01c7.73,0,15.72-.94,23.96-2.82s15.67-4.6,22.28-8.16c6.61,7.32,16.99,10.99,31.13,10.99h36.48v-116.9h-21.21v98.59ZM904.22,232.84c-3.92,4.07-8.57,7.43-13.96,10.07-4.48-4.07-8.95-9.08-13.43-15.03-4.48-5.95-8.09-11.62-10.84-17.02,8.85-3.97,16.38-5.95,22.59-5.95s11.09,1.35,15.26,4.04c4.17,2.7,6.26,6.33,6.26,10.91s-1.96,8.91-5.88,12.97ZM990.14,241.01c-3.21,3.51-7.81,5.27-13.81,5.27h-9.77v-39.53c3.36-.71,6.61-1.07,9.77-1.07,12.41,0,18.62,6.97,18.62,20.91,0,6.1-1.6,10.91-4.81,14.42Z"/>
        <rect class="cls-4" x="1194.87" y="147.69" width="21.37" height="116.9"/>
      </g>
      <g>
        <rect class="cls-4" x="62.63" y="464.63" width="21.98" height="19.23"/>
        <rect class="cls-4" x="32.1" y="464.63" width="21.98" height="19.23"/>
        <path class="cls-4" d="M446.76,432.88h-9.46c-5.19,0-9.92-1.12-14.19-3.36-4.27-2.24-6.56-5.54-6.87-9.92v-44.11h-21.37v39.83c0,5.29-1.45,9.54-4.35,12.74-2.9,3.2-6.39,4.81-10.45,4.81h-9.46v-57.38h-21.37v57.38h-15.26c-6.01,0-10.41-.43-13.2-1.3s-5.37-2.57-7.71-5.11c.61-3.25.91-5.85.91-7.78v-49.6h-21.37v46.24c0,5.9-1.32,10.3-3.97,13.2-2.65,2.9-6.01,4.35-10.07,4.35s-7.96-1.2-11.37-3.59c-3.41-2.39-5.11-5.88-5.11-10.46v-43.34h-21.37v39.83c0,5.29-1.45,9.54-4.35,12.74-2.9,3.2-6.39,4.81-10.45,4.81h-9.46v-57.38h-21.37v57.38h-38.16c-3.87,0-6.79-1.09-8.77-3.28-1.98-2.19-2.98-5.93-2.98-11.22v-61.2h-32.81c-12.92,0-22.38,3.38-28.39,10.15-6,6.77-9,15.24-9,25.41v40.14h-27.17c-14.96,0-22.44-6.82-22.44-20.45v-36.93H4.02v40.29c0,10.17,3,18.62,9,25.33,6,6.71,15.46,10.07,28.39,10.07h54.94v-55.09c0-13.74,7.48-20.6,22.44-20.6h5.03v46.24c0,8.95,2.29,16.1,6.87,21.44,4.58,5.34,11.19,8.01,19.84,8.01h81.8c9.16,0,16.58-3.41,22.28-10.23,2.85,3.36,6.33,5.9,10.45,7.63,4.12,1.73,9.64,2.6,16.56,2.6,5.29,0,10.15-1.07,14.58-3.21,4.43-2.14,8.06-5.09,10.91-8.85,3.56,4.48,7.3,7.58,11.22,9.31,3.91,1.73,9.13,2.64,15.64,2.75h52.5c9.16,0,16.53-3.36,22.13-10.07,5.7,6.71,13.99,10.07,24.88,10.07h34.64v-82.11h-21.37v63.79Z"/>
        <path class="cls-4" d="M503.91,379.01c-6.26,3.36-11.12,8.01-14.57,13.96-3.46,5.95-5.19,12.59-5.19,19.92s1.6,14.35,4.81,20.15c3.21,5.8,7.63,10.28,13.28,13.43,5.65,3.15,11.98,4.73,19,4.73h2.14l8.24-18.31h-6.71c-6,0-10.61-1.75-13.81-5.27-3.2-3.51-4.81-8.32-4.81-14.42,0-13.94,6.21-20.91,18.62-20.91,2.95,0,6.2.36,9.77,1.07v52.65c0,4.98-.97,8.93-2.9,11.83-1.93,2.9-4.76,5.09-8.47,6.56-3.71,1.47-8.73,2.62-15.03,3.43l8.55,19.08c8.34-1.32,15.34-3.38,20.99-6.18,5.65-2.8,10.1-7.05,13.35-12.74,3.26-5.7,4.88-13.28,4.88-22.74v-68.22c-13.23-2.03-23.35-3.05-30.37-3.05-8.24,0-15.49,1.68-21.75,5.04Z"/>
        <path class="cls-4" d="M545.35,352.15h-17.55c-.82-1.12-1.22-2.59-1.22-4.43s.48-3.26,1.45-4.27c.96-1.02,2.21-1.53,3.74-1.53,1.12,0,2.54.3,4.27.92l3.82-11.6c-3.36-1.02-6.51-1.53-9.46-1.53-5.29,0-9.49,1.48-12.59,4.43-3.1,2.95-4.66,6.92-4.66,11.9,0,2.04.51,4.07,1.53,6.1h-7.48l-2.75,12.97h40.9v-12.97Z"/>
        <path class="cls-4" d="M693.08,432.88h-15.26c-6,0-10.58-1.47-13.73-4.43,1.83-4.58,2.75-9.77,2.75-15.57,0-7.33-1.73-13.96-5.19-19.92-3.46-5.95-8.32-10.61-14.57-13.96-6.26-3.36-13.51-5.04-21.75-5.04-7.02,0-17.14,1.02-30.37,3.05v55.86h-29c-.61,0-1.02.18-1.22.53-.2.36-.3.69-.3.99v15.26c0,.3.1.63.3.99.2.36.61.53,1.22.53h63.79c10.38,0,19.08-3.36,26.1-10.07,3.15,3.36,6.74,5.88,10.76,7.55,4.02,1.68,7.76,2.52,11.22,2.52h36.47v-116.9h-21.21v98.59ZM639.89,427.62c-3.21,3.51-7.81,5.27-13.81,5.27h-9.77v-39.53c3.36-.71,6.61-1.07,9.77-1.07,12.41,0,18.62,6.97,18.62,20.91,0,6.1-1.6,10.91-4.81,14.42Z"/>
        <rect class="cls-4" x="740.23" y="334.3" width="21.37" height="116.9"/>
        <rect class="cls-4" x="823.41" y="343.3" width="21.97" height="19.23"/>
        <rect class="cls-4" x="902.61" y="464.63" width="21.98" height="19.23"/>
        <rect class="cls-4" x="933.14" y="464.63" width="21.98" height="19.23"/>
        <rect class="cls-4" x="1069.42" y="343.3" width="21.98" height="19.23"/>
        <rect class="cls-4" x="1099.95" y="343.3" width="21.97" height="19.23"/>
        <path class="cls-4" d="M1195.03,334.3v98.59h-15.26c-6.82,0-11.75-1.88-14.8-5.65.61-2.75.92-5.59.92-8.55v-84.4h-21.37v81.04c0,5.29-1.45,9.54-4.35,12.74-2.9,3.2-6.39,4.81-10.45,4.81h-3.05c-5.9,0-10.28-.43-13.12-1.3-2.85-.86-5.39-2.52-7.63-4.96.51-2.75.76-5.39.76-7.94v-44.72h-21.37v41.36c0,5.29-1.45,9.54-4.35,12.74-2.9,3.2-6.39,4.81-10.45,4.81h-13.74c-6,0-10.58-1.47-13.73-4.43,1.83-4.58,2.75-9.77,2.75-15.57,0-7.33-1.73-13.96-5.19-19.92-3.46-5.95-8.32-10.61-14.57-13.96-6.26-3.36-13.51-5.04-21.75-5.04-7.02,0-17.14,1.02-30.37,3.05v55.86h-9.16c-5.9,0-10.28-.43-13.12-1.3-2.85-.86-5.39-2.52-7.63-4.96.51-2.75.76-5.39.76-7.94v-44.72h-21.37v41.36c0,5.29-1.45,9.54-4.35,12.74-2.9,3.2-6.39,4.81-10.45,4.81h-47.92c-7.02,0-12.16-2.19-15.41-6.56v-50.82h-21.37v71.73c0,4.98-.71,8.87-2.14,11.67-1.43,2.8-3.56,4.81-6.41,6.03-2.85,1.22-6.77,2.19-11.75,2.9l8.55,19.08c9.77-1.12,17.73-4.81,23.88-11.07,6.16-6.26,9.23-16,9.23-29.22v-.15c2.9,1.73,5.74,2.94,8.55,3.72.05.16.05.31.15.48.21.36.61.53,1.22.53h59.83c4.88,0,9.33-1.02,13.35-3.05,4.02-2.03,7.35-4.88,10-8.55,3.46,4.27,7.12,7.25,10.99,8.93,3.86,1.68,9,2.57,15.41,2.67h43.95c10.38,0,19.08-3.36,26.1-10.07,3.15,3.36,6.74,5.88,10.76,7.55,4.02,1.68,7.76,2.52,11.22,2.52h20.15c4.88,0,9.33-1.02,13.35-3.05,4.02-2.03,7.35-4.88,10-8.55,3.46,4.27,7.12,7.25,10.99,8.93,3.86,1.68,9,2.57,15.41,2.67h9.46c9.16,0,16.48-3.26,21.98-9.77,3.15,3.26,6.71,5.7,10.68,7.33,3.97,1.63,7.63,2.44,10.99,2.44h36.47v-116.9h-21.21ZM1018.83,427.62c-3.21,3.51-7.81,5.27-13.81,5.27h-9.77v-39.53c3.36-.71,6.61-1.07,9.77-1.07,12.41,0,18.62,6.97,18.62,20.91,0,6.1-1.6,10.91-4.81,14.42Z"/>
      </g>
    </g>
  </g>
</svg>